<?xml version="1.0" encoding="UTF-8"?>
<!DOCTYPE svg PUBLIC "-//W3C//DTD SVG 1.1//EN" "http://www.w3.org/Graphics/SVG/1.1/DTD/svg11.dtd">
<svg xmlns="http://www.w3.org/2000/svg" version="1.1" width="1024px" height="1024px" style="shape-rendering:geometricPrecision; text-rendering:geometricPrecision; image-rendering:optimizeQuality; fill-rule:evenodd; clip-rule:evenodd" xmlns:xlink="http://www.w3.org/1999/xlink">
<g><path style="opacity:0.012" fill="#636563" d="M 687.5,255.5 C 688.833,256.167 688.833,256.167 687.5,255.5 Z"/></g>
<g><path style="opacity:0.941" fill="#323131" d="M 691.5,258.5 C 691.833,259.167 692.167,259.833 692.5,260.5C 691.833,260.5 691.5,260.833 691.5,261.5C 690.5,261.167 689.833,260.5 689.5,259.5C 655.004,258.502 620.337,258.168 585.5,258.5C 590.233,257.81 595.066,257.144 600,256.5C 625.793,256.7 650.96,257.033 675.5,257.5C 677.32,257.351 678.82,256.684 680,255.5C 683.579,257.186 687.413,258.186 691.5,258.5 Z"/></g>
<g><path style="opacity:0.004" fill="#696768" d="M 691.5,257.5 C 692.833,258.167 692.833,258.167 691.5,257.5 Z"/></g>
<g><path style="opacity:0.984" fill="#000000" d="M 585.5,258.5 C 620.337,258.168 655.004,258.502 689.5,259.5C 655.498,259.333 621.498,259.5 587.5,260C 585.869,261.836 585.202,261.336 585.5,258.5 Z"/></g>
<g><path style="opacity:0.998" fill="#171717" d="M 585.5,258.5 C 585.202,261.336 585.869,261.836 587.5,260C 621.498,259.5 655.498,259.333 689.5,259.5C 689.833,260.5 690.5,261.167 691.5,261.5C 691.333,295.835 691.5,330.168 692,364.5C 692.383,363.944 692.883,363.611 693.5,363.5C 693.672,364.492 693.338,365.158 692.5,365.5C 690.883,366.038 689.216,366.371 687.5,366.5C 686.833,366.5 686.167,366.5 685.5,366.5C 685.027,365.094 684.027,364.427 682.5,364.5C 677.526,359.861 672.526,355.195 667.5,350.5C 667.167,349.5 666.5,348.833 665.5,348.5C 663.167,345.5 660.5,342.833 657.5,340.5C 655.444,337.442 652.777,335.109 649.5,333.5C 646.898,334.434 644.898,336.101 643.5,338.5C 640.833,340.5 638.5,342.833 636.5,345.5C 629.833,351.833 623.167,358.167 616.5,364.5C 613.975,366.177 611.309,367.677 608.5,369C 606.334,370.678 605.001,372.845 604.5,375.5C 602.545,377.826 600.545,380.159 598.5,382.5C 590.167,390.167 582.167,398.167 574.5,406.5C 566.833,413.5 559.5,420.833 552.5,428.5C 547.14,433.528 541.807,438.528 536.5,443.5C 533.911,444.419 531.911,446.086 530.5,448.5C 520.811,458.691 510.811,468.858 500.5,479C 496.309,480.776 492.643,479.942 489.5,476.5C 487.833,474.5 486.167,472.5 484.5,470.5C 484.167,469.5 483.5,468.833 482.5,468.5C 482.167,468.5 481.833,468.5 481.5,468.5C 479.5,465.833 477.167,463.5 474.5,461.5C 472.448,459.122 470.448,456.789 468.5,454.5C 467.167,452.5 465.5,450.833 463.5,449.5C 461.5,449.5 460.5,448.5 460.5,446.5C 458.431,443.427 455.764,441.094 452.5,439.5C 449.93,437.386 447.597,435.053 445.5,432.5C 444.167,429.167 441.833,426.833 438.5,425.5C 437.829,424.153 437.829,422.986 438.5,422C 434.194,417.694 429.86,413.36 425.5,409C 424.423,408.53 423.423,408.697 422.5,409.5C 420.901,409.232 419.568,409.566 418.5,410.5C 408.167,420.167 398.167,430.167 388.5,440.5C 355.998,472.167 323.998,504.001 292.5,536C 290.242,537.93 287.742,539.43 285,540.5C 283.53,539.733 282.03,539.067 280.5,538.5C 274.194,532.86 268.194,526.86 262.5,520.5C 262.573,518.973 261.906,517.973 260.5,517.5C 259.378,515.712 259.211,513.712 260,511.5C 263.371,508.297 266.538,504.964 269.5,501.5C 273.771,498.899 277.437,495.566 280.5,491.5C 281.167,490.167 282.167,489.167 283.5,488.5C 291.833,480.833 299.833,472.833 307.5,464.5C 307.427,462.973 308.094,461.973 309.5,461.5C 313.167,459.833 315.833,457.167 317.5,453.5C 319.833,450.833 322.167,448.167 324.5,445.5C 324.833,445.5 325.167,445.5 325.5,445.5C 329.5,443.5 332.5,440.5 334.5,436.5C 340.5,430.167 346.5,423.833 352.5,417.5C 371.354,399.479 389.687,380.979 407.5,362C 410.228,359.608 413.228,357.608 416.5,356C 420.452,355.088 424.119,355.755 427.5,358C 436.672,366.005 445.338,374.505 453.5,383.5C 453.973,384.906 454.973,385.573 456.5,385.5C 459.167,387.833 461.833,390.167 464.5,392.5C 467.5,396.167 470.833,399.5 474.5,402.5C 476.167,404.833 478.167,406.833 480.5,408.5C 484.664,413.497 489.331,417.997 494.5,422C 495.5,422.667 496.5,422.667 497.5,422C 498.384,420.28 499.717,419.114 501.5,418.5C 504.5,417.5 506.5,415.5 507.5,412.5C 513.108,408.561 518.108,403.894 522.5,398.5C 524.914,397.089 526.581,395.089 527.5,392.5C 527.833,391.833 528.167,391.167 528.5,390.5C 528.833,390.5 529.167,390.5 529.5,390.5C 538.393,383.278 546.726,375.278 554.5,366.5C 562.272,357.965 570.272,349.632 578.5,341.5C 581.784,339.883 584.451,337.55 586.5,334.5C 588.167,332.5 589.833,330.5 591.5,328.5C 593.404,328.262 594.738,327.262 595.5,325.5C 600.833,320.833 605.833,315.833 610.5,310.5C 613.388,307.889 615.388,304.723 616.5,301C 615.11,297.439 612.777,294.605 609.5,292.5C 607.167,289.5 604.5,286.833 601.5,284.5C 599.5,281.833 597.167,279.5 594.5,277.5C 592.167,274.5 589.5,271.833 586.5,269.5C 586.573,267.973 585.906,266.973 584.5,266.5C 582.898,263.466 583.231,260.799 585.5,258.5 Z"/></g>
<g><path style="opacity:0.004" fill="#504d4e" d="M 584.5,266.5 C 583.833,267.167 583.833,267.167 584.5,266.5 Z"/></g>
<g><path style="opacity:0.012" fill="#4f4d4b" d="M 585.5,269.5 C 584.833,268.167 584.833,268.167 585.5,269.5 Z"/></g>
<g><path style="opacity:0.994" fill="#070707" d="M 692.5,260.5 C 694.006,263.366 694.34,266.366 693.5,269.5C 693.5,300.833 693.5,332.167 693.5,363.5C 692.883,363.611 692.383,363.944 692,364.5C 691.5,330.168 691.333,295.835 691.5,261.5C 691.5,260.833 691.833,260.5 692.5,260.5 Z"/></g>
<g><path style="opacity:0.008" fill="#4f4f4d" d="M 584.5,269.5 C 583.833,270.167 583.833,270.167 584.5,269.5 Z"/></g>
<g><path style="opacity:0.004" fill="#4f4c4b" d="M 585.5,269.5 C 585.833,269.5 586.167,269.5 586.5,269.5C 586.167,272.167 585.833,272.167 585.5,269.5 Z"/></g>
<g><path style="opacity:0.008" fill="#4a4a47" d="M 594.5,277.5 C 593.833,278.167 593.833,278.167 594.5,277.5 Z"/></g>
<g><path style="opacity:0.012" fill="#494949" d="M 593.5,278.5 C 592.833,279.167 592.833,279.167 593.5,278.5 Z"/></g>
<g><path style="opacity:0.008" fill="#4a4749" d="M 601.5,284.5 C 601.631,285.239 601.464,285.906 601,286.5C 600.308,285.563 600.475,284.897 601.5,284.5 Z"/></g>
<g><path style="opacity:0.016" fill="#484644" d="M 609.5,292.5 C 608.833,293.167 608.833,293.167 609.5,292.5 Z"/></g>
<g><path style="opacity:0.004" fill="#494848" d="M 607.5,306.5 C 608.833,307.167 608.833,307.167 607.5,306.5 Z"/></g>
<g><path style="opacity:0.01" fill="#494846" d="M 599.5,312.5 C 600.573,313.251 600.74,314.251 600,315.5C 599.517,314.552 599.351,313.552 599.5,312.5 Z"/></g>
<g><path style="opacity:0.058" fill="#7d7b7a" d="M 693.5,269.5 C 694.174,299.706 694.841,330.039 695.5,360.5C 695.058,361.739 694.391,362.739 693.5,363.5C 693.5,332.167 693.5,300.833 693.5,269.5 Z"/></g>
<g><path style="opacity:0.004" fill="#454746" d="M 600.5,318.5 C 599.833,317.167 599.833,317.167 600.5,318.5 Z"/></g>
<g><path style="opacity:0.875" fill="#464746" d="M 610.5,310.5 C 605.833,315.833 600.833,320.833 595.5,325.5C 596.754,322.907 598.42,320.573 600.5,318.5C 603.564,315.43 606.897,312.763 610.5,310.5 Z"/></g>
<g><path style="opacity:0.008" fill="#474a46" d="M 591.5,321.5 C 592.833,322.167 592.833,322.167 591.5,321.5 Z"/></g>
<g><path style="opacity:0.004" fill="#494848" d="M 595.5,325.5 C 594.738,327.262 593.404,328.262 591.5,328.5C 591.579,327.042 592.079,325.708 593,324.5C 593.671,325.252 594.504,325.586 595.5,325.5 Z"/></g>
<g><path style="opacity:0.004" fill="#474746" d="M 583.5,327.5 C 585.337,327.639 585.67,328.306 584.5,329.5C 583.702,329.043 583.369,328.376 583.5,327.5 Z"/></g>
<g><path style="opacity:0.004" fill="#454746" d="M 588.5,328.5 C 587.833,327.167 587.833,327.167 588.5,328.5 Z"/></g>
<g><path style="opacity:0.012" fill="#494844" d="M 589.5,327.5 C 590.833,328.167 590.833,328.167 589.5,327.5 Z"/></g>
<g><path style="opacity:0.016" fill="#484845" d="M 587.5,328.5 C 586.833,329.167 586.833,329.167 587.5,328.5 Z"/></g>
<g><path style="opacity:0.02" fill="#464947" d="M 588.5,328.5 C 588.833,328.5 589.167,328.5 589.5,328.5C 589.315,329.17 588.981,329.17 588.5,328.5 Z"/></g>
<g><path style="opacity:0.008" fill="#484848" d="M 584.5,331.5 C 585.833,332.167 585.833,332.167 584.5,331.5 Z"/></g>
<g><path style="opacity:0.004" fill="#494748" d="M 649.5,334.5 C 650.833,335.167 650.833,335.167 649.5,334.5 Z"/></g>
<g><path style="opacity:0.004" fill="#474746" d="M 578.5,336.5 C 579.833,337.167 579.833,337.167 578.5,336.5 Z"/></g>
<g><path style="opacity:0.824" fill="#484847" d="M 586.5,334.5 C 584.451,337.55 581.784,339.883 578.5,341.5C 580.523,338.48 583.19,336.146 586.5,334.5 Z"/></g>
<g><path style="opacity:0.008" fill="#484644" d="M 575.5,338.5 C 576.833,339.167 576.833,339.167 575.5,338.5 Z"/></g>
<g><path style="opacity:0.008" fill="#484747" d="M 643.5,338.5 C 644.833,339.167 644.833,339.167 643.5,338.5 Z"/></g>
<g><path style="opacity:0.004" fill="#4b4946" d="M 657.5,340.5 C 656.833,341.167 656.833,341.167 657.5,340.5 Z"/></g>
<g><path style="opacity:0.008" fill="#454946" d="M 575.5,341.5 C 576.833,342.167 576.833,342.167 575.5,341.5 Z"/></g>
<g><path style="opacity:0.008" fill="#484c46" d="M 572.5,344.5 C 573.833,345.167 573.833,345.167 572.5,344.5 Z"/></g>
<g><path style="opacity:0.004" fill="#494848" d="M 636.5,345.5 C 637.833,346.167 637.833,346.167 636.5,345.5 Z"/></g>
<g><path style="opacity:0.004" fill="#4a4849" d="M 568.5,346.5 C 569.833,347.167 569.833,347.167 568.5,346.5 Z"/></g>
<g><path style="opacity:0.004" fill="#4a4948" d="M 665.5,348.5 C 664.833,349.167 664.833,349.167 665.5,348.5 Z"/></g>
<g><path style="opacity:0.004" fill="#4a4947" d="M 667.5,350.5 C 666.833,351.167 666.833,351.167 667.5,350.5 Z"/></g>
<g><path style="opacity:0.008" fill="#484847" d="M 560.5,353.5 C 560.517,351.972 561.184,351.472 562.5,352C 561.956,352.717 561.289,353.217 560.5,353.5 Z"/></g>
<g><path style="opacity:0.004" fill="#4c4b49" d="M 416.5,353.5 C 417.833,354.167 417.833,354.167 416.5,353.5 Z"/></g>
<g><path style="opacity:0.008" fill="#4a4a48" d="M 560.5,353.5 C 559.833,354.167 559.833,354.167 560.5,353.5 Z"/></g>
<g><path style="opacity:0.004" fill="#4c4a47" d="M 554.5,359.5 C 555.833,360.167 555.833,360.167 554.5,359.5 Z"/></g>
<g><path style="opacity:0.008" fill="#4a4b48" d="M 436.5,360.5 C 437.833,361.167 437.833,361.167 436.5,360.5 Z"/></g>
<g><path style="opacity:0.004" fill="#494849" d="M 552.5,360.5 C 553.833,361.167 553.833,361.167 552.5,360.5 Z"/></g>
<g><path style="opacity:0.004" fill="#4d4c48" d="M 435.5,362.5 C 436.833,363.167 436.833,363.167 435.5,362.5 Z"/></g>
<g><path style="opacity:0.004" fill="#494848" d="M 551.5,362.5 C 552.833,363.167 552.833,363.167 551.5,362.5 Z"/></g>
<g><path style="opacity:0.224" fill="#646462" d="M 682.5,364.5 C 684.027,364.427 685.027,365.094 685.5,366.5C 683.973,366.573 682.973,365.906 682.5,364.5 Z"/></g>
<g><path style="opacity:0.008" fill="#666464" d="M 692.5,365.5 C 692.611,366.117 692.944,366.617 693.5,367C 691.288,367.789 689.288,367.622 687.5,366.5C 689.216,366.371 690.883,366.038 692.5,365.5 Z"/></g>
<g><path style="opacity:0.004" fill="#4a4a48" d="M 444.5,368.5 C 445.833,369.167 445.833,369.167 444.5,368.5 Z"/></g>
<g><path style="opacity:1" fill="#303030" d="M 616.5,364.5 C 612.847,368.64 608.847,372.307 604.5,375.5C 605.001,372.845 606.334,370.678 608.5,369C 611.309,367.677 613.975,366.177 616.5,364.5 Z"/></g>
<g><path style="opacity:0.004" fill="#4a4c4c" d="M 544.5,374.5 C 543.833,373.167 543.833,373.167 544.5,374.5 Z"/></g>
<g><path style="opacity:0.004" fill="#494b47" d="M 536.5,375.5 C 537.833,376.167 537.833,376.167 536.5,375.5 Z"/></g>
<g><path style="opacity:0.004" fill="#4d4d4a" d="M 540.5,375.5 C 541.833,376.167 541.833,376.167 540.5,375.5 Z"/></g>
<g><path style="opacity:0.004" fill="#484b49" d="M 537.5,377.5 C 538.833,378.167 538.833,378.167 537.5,377.5 Z"/></g>
<g><path style="opacity:0.004" fill="#4b4e4a" d="M 387.5,379.5 C 388.833,380.167 388.833,380.167 387.5,379.5 Z"/></g>
<g><path style="opacity:0.894" fill="#4b4b49" d="M 554.5,366.5 C 546.726,375.278 538.393,383.278 529.5,390.5C 530.96,388.537 532.627,386.704 534.5,385C 533.833,384.667 533.167,384.333 532.5,384C 533.833,383.667 535.167,383.333 536.5,383C 539.343,380.323 542.01,377.49 544.5,374.5C 547.564,371.43 550.897,368.763 554.5,366.5 Z"/></g>
<g><path style="opacity:0.004" fill="#4d4e4e" d="M 598.5,382.5 C 599.833,383.167 599.833,383.167 598.5,382.5 Z"/></g>
<g><path style="opacity:0.035" fill="#5b5a5a" d="M 453.5,383.5 C 455.027,383.427 456.027,384.094 456.5,385.5C 454.973,385.573 453.973,384.906 453.5,383.5 Z"/></g>
<g><path style="opacity:0.012" fill="#4b4949" d="M 527.5,383.5 C 528.573,384.251 528.74,385.251 528,386.5C 527.517,385.552 527.351,384.552 527.5,383.5 Z"/></g>
<g><path style="opacity:0.004" fill="#4a4848" d="M 528.5,387.5 C 529.833,388.167 529.833,388.167 528.5,387.5 Z"/></g>
<g><path style="opacity:0.004" fill="#4b4b49" d="M 528.5,390.5 C 527.833,389.167 527.833,389.167 528.5,390.5 Z"/></g>
<g><path style="opacity:0.004" fill="#4c4d4b" d="M 464.5,391.5 C 465.833,392.167 465.833,392.167 464.5,391.5 Z"/></g>
<g><path style="opacity:0.004" fill="#474d48" d="M 526.5,392.5 C 525.833,391.167 525.833,391.167 526.5,392.5 Z"/></g>
<g><path style="opacity:0.867" fill="#474645" d="M 526.5,392.5 C 526.833,392.5 527.167,392.5 527.5,392.5C 526.581,395.089 524.914,397.089 522.5,398.5C 523.415,396.246 524.748,394.246 526.5,392.5 Z"/></g>
<g><path style="opacity:0.004" fill="#4a4b49" d="M 477.5,399.5 C 478.833,400.167 478.833,400.167 477.5,399.5 Z"/></g>
<g><path style="opacity:0.004" fill="#4a4b48" d="M 359.5,400.5 C 360.833,401.167 360.833,401.167 359.5,400.5 Z"/></g>
<g><path style="opacity:0.999" fill="#181818" d="M 692.5,402.5 C 691.848,435.179 691.181,467.846 690.5,500.5C 690.957,501.298 691.624,501.631 692.5,501.5C 691.942,502.79 690.942,503.623 689.5,504C 675.837,504.5 662.171,504.667 648.5,504.5C 645.941,504.198 643.607,504.532 641.5,505.5C 638.298,506.131 635.298,507.131 632.5,508.5C 626.984,509.592 621.65,511.259 616.5,513.5C 614.973,513.427 613.973,514.094 613.5,515.5C 613.918,516.222 614.584,516.722 615.5,517C 613.097,517.63 611.263,516.797 610,514.5C 609.169,477.331 609.336,440.331 610.5,403.5C 610.624,401.418 611.624,399.918 613.5,399C 637.073,398.828 660.573,398.328 684,397.5C 686.069,398.264 688.236,398.764 690.5,399C 691.823,399.816 692.489,400.983 692.5,402.5 Z"/></g>
<g><path style="opacity:0.004" fill="#4e4e4c" d="M 474.5,401.5 C 475.833,402.167 475.833,402.167 474.5,401.5 Z"/></g>
<g><path style="opacity:0.004" fill="#4b4b49" d="M 512.5,406.5 C 511.833,405.167 511.833,405.167 512.5,406.5 Z"/></g>
<g><path style="opacity:0.994" fill="#050505" d="M 692.5,402.5 C 693.404,403.209 693.737,404.209 693.5,405.5C 693.5,436.833 693.5,468.167 693.5,499.5C 693.672,500.492 693.338,501.158 692.5,501.5C 691.624,501.631 690.957,501.298 690.5,500.5C 691.181,467.846 691.848,435.179 692.5,402.5 Z"/></g>
<g><path style="opacity:0.004" fill="#4f4c4c" d="M 574.5,406.5 C 575.833,407.167 575.833,407.167 574.5,406.5 Z"/></g>
<g><path style="opacity:0.004" fill="#4e4e4c" d="M 480.5,407.5 C 481.833,408.167 481.833,408.167 480.5,407.5 Z"/></g>
<g><path style="opacity:0.984" fill="#282827" d="M 438.5,425.5 C 437.167,424.5 435.833,423.5 434.5,422.5C 434.167,421.167 433.833,421.167 433.5,422.5C 432.883,422.611 432.383,422.944 432,423.5C 432,422.167 432,420.833 432,419.5C 429.63,416.961 427.13,414.628 424.5,412.5C 423.833,411.5 423.167,410.5 422.5,409.5C 423.423,408.697 424.423,408.53 425.5,409C 429.86,413.36 434.194,417.694 438.5,422C 437.829,422.986 437.829,424.153 438.5,425.5 Z"/></g>
<g><path style="opacity:0.004" fill="#474849" d="M 504.5,408.5 C 505.833,409.167 505.833,409.167 504.5,408.5 Z"/></g>
<g><path style="opacity:0.949" fill="#444343" d="M 522.5,398.5 C 518.108,403.894 513.108,408.561 507.5,412.5C 509.167,410.5 510.833,408.5 512.5,406.5C 515.564,403.43 518.897,400.763 522.5,398.5 Z"/></g>
<g><path style="opacity:0.004" fill="#494949" d="M 418.5,410.5 C 419.833,411.167 419.833,411.167 418.5,410.5 Z"/></g>
<g><path style="opacity:0.004" fill="#494846" d="M 504.5,410.5 C 505.833,411.167 505.833,411.167 504.5,410.5 Z"/></g>
<g><path style="opacity:0.012" fill="#4d4b49" d="M 424.5,412.5 C 423.833,413.167 423.833,413.167 424.5,412.5 Z"/></g>
<g><path style="opacity:0.985" fill="#070708" d="M 610.5,403.5 C 611.29,404.609 611.79,405.942 612,407.5C 612.833,442.171 612.667,476.838 611.5,511.5C 610.5,475.506 610.167,439.506 610.5,403.5 Z"/></g>
<g><path style="opacity:0.969" fill="#3f4040" d="M 507.5,412.5 C 506.5,415.5 504.5,417.5 501.5,418.5C 501.5,418.167 501.5,417.833 501.5,417.5C 503.5,415.833 505.5,414.167 507.5,412.5 Z"/></g>
<g><path style="opacity:0.007" fill="#4c4b4b" d="M 607.5,415.5 C 608.622,417.288 608.789,419.288 608,421.5C 607.505,419.527 607.338,417.527 607.5,415.5 Z"/></g>
<g><path style="opacity:0.004" fill="#494847" d="M 352.5,417.5 C 351.833,416.167 351.833,416.167 352.5,417.5 Z"/></g>
<g><path style="opacity:0.008" fill="#474a46" d="M 496.5,416.5 C 497.833,417.167 497.833,417.167 496.5,416.5 Z"/></g>
<g><path style="opacity:0.004" fill="#484847" d="M 501.5,417.5 C 500.833,416.167 500.833,416.167 501.5,417.5 Z"/></g>
<g><path style="opacity:0.012" fill="#494a45" d="M 496.5,419.5 C 495.833,418.167 495.833,418.167 496.5,419.5 Z"/></g>
<g><path style="opacity:0.004" fill="#494749" d="M 496.5,419.5 C 497.833,420.167 497.833,420.167 496.5,419.5 Z"/></g>
<g><path style="opacity:0.004" fill="#4f4f4c" d="M 433.5,422.5 C 433.833,422.5 434.167,422.5 434.5,422.5C 434.315,423.17 433.981,423.17 433.5,422.5 Z"/></g>
<g><path style="opacity:0.855" fill="#525150" d="M 438.5,425.5 C 441.833,426.833 444.167,429.167 445.5,432.5C 442.833,430.5 440.5,428.167 438.5,425.5 Z"/></g>
<g><path style="opacity:0.004" fill="#4b4a48" d="M 607.5,425.5 C 608.833,426.167 608.833,426.167 607.5,425.5 Z"/></g>
<g><path style="opacity:0.008" fill="#4b4b46" d="M 607.5,427.5 C 608.833,428.167 608.833,428.167 607.5,427.5 Z"/></g>
<g><path style="opacity:0.004" fill="#4b4a4b" d="M 552.5,428.5 C 553.833,429.167 553.833,429.167 552.5,428.5 Z"/></g>
<g><path style="opacity:0.004" fill="#4b4a4b" d="M 439.5,431.5 C 439.897,430.475 440.563,430.308 441.5,431C 440.906,431.464 440.239,431.631 439.5,431.5 Z"/></g>
<g><path style="opacity:0.008" fill="#4a4947" d="M 607.5,433.5 C 608.833,434.167 608.833,434.167 607.5,433.5 Z"/></g>
<g><path style="opacity:0.933" fill="#414141" d="M 334.5,436.5 C 332.5,440.5 329.5,443.5 325.5,445.5C 328.167,442.167 331.167,439.167 334.5,436.5 Z"/></g>
<g><path style="opacity:0.769" fill="#525151" d="M 452.5,439.5 C 455.764,441.094 458.431,443.427 460.5,446.5C 459.504,446.586 458.671,446.252 458,445.5C 457.577,446.956 456.744,447.456 455.5,447C 455.833,446 456.167,445 456.5,444C 454.959,442.629 453.625,441.129 452.5,439.5 Z"/></g>
<g><path style="opacity:0.004" fill="#4f4d4c" d="M 388.5,440.5 C 389.833,441.167 389.833,441.167 388.5,440.5 Z"/></g>
<g><path style="opacity:0.004" fill="#4a4849" d="M 607.5,442.5 C 608.833,443.167 608.833,443.167 607.5,442.5 Z"/></g>
<g><path style="opacity:0.004" fill="#4d4d4b" d="M 324.5,445.5 C 323.833,444.167 323.833,444.167 324.5,445.5 Z"/></g>
<g><path style="opacity:0.02" fill="#585756" d="M 536.5,443.5 C 535.089,445.914 533.089,447.581 530.5,448.5C 531.911,446.086 533.911,444.419 536.5,443.5 Z"/></g>
<g><path style="opacity:0.004" fill="#4a4948" d="M 607.5,445.5 C 608.525,445.897 608.692,446.563 608,447.5C 607.536,446.906 607.369,446.239 607.5,445.5 Z"/></g>
<g><path style="opacity:0.012" fill="#595756" d="M 463.5,449.5 C 465.5,450.833 467.167,452.5 468.5,454.5C 467.153,453.829 465.986,453.829 465,454.5C 464.392,452.846 463.892,451.179 463.5,449.5 Z"/></g>
<g><path style="opacity:0.004" fill="#4b4949" d="M 607.5,448.5 C 608.622,450.288 608.789,452.288 608,454.5C 607.505,452.527 607.338,450.527 607.5,448.5 Z"/></g>
<g><path style="opacity:0.012" fill="#4a4948" d="M 607.5,456.5 C 608.833,457.167 608.833,457.167 607.5,456.5 Z"/></g>
<g><path style="opacity:0.82" fill="#4a4a4a" d="M 317.5,453.5 C 315.833,457.167 313.167,459.833 309.5,461.5C 311.833,458.5 314.5,455.833 317.5,453.5 Z"/></g>
<g><path style="opacity:0.012" fill="#4a4848" d="M 607.5,458.5 C 608.573,459.251 608.74,460.251 608,461.5C 607.517,460.552 607.351,459.552 607.5,458.5 Z"/></g>
<g><path style="opacity:0.004" fill="#4c4c48" d="M 474.5,461.5 C 473.833,462.167 473.833,462.167 474.5,461.5 Z"/></g>
<g><path style="opacity:0.007" fill="#494847" d="M 607.5,463.5 C 608.641,466.64 608.808,469.973 608,473.5C 607.502,470.183 607.335,466.85 607.5,463.5 Z"/></g>
<g><path style="opacity:0.009" fill="#535251" d="M 481.5,468.5 C 481.833,469.833 482.167,469.833 482.5,468.5C 483.5,468.833 484.167,469.5 484.5,470.5C 483.178,470.33 482.011,470.663 481,471.5C 479.188,469.696 479.354,468.696 481.5,468.5 Z"/></g>
<g><path style="opacity:0.098" fill="#7b7978" d="M 693.5,405.5 C 694.17,435.902 694.837,466.402 695.5,497C 694.934,497.995 694.267,498.828 693.5,499.5C 693.5,468.167 693.5,436.833 693.5,405.5 Z"/></g>
<g><path style="opacity:0.004" fill="#4c4c4c" d="M 475.5,469.5 C 476.833,470.167 476.833,470.167 475.5,469.5 Z"/></g>
<g><path style="opacity:0.004" fill="#4f514f" d="M 292.5,477.5 C 291.833,476.167 291.833,476.167 292.5,477.5 Z"/></g>
<g><path style="opacity:0.012" fill="#4f4e4b" d="M 489.5,476.5 C 488.833,477.167 488.833,477.167 489.5,476.5 Z"/></g>
<g><path style="opacity:0.004" fill="#4a4948" d="M 607.5,474.5 C 608.643,477.976 608.81,481.642 608,485.5C 607.501,481.848 607.335,478.182 607.5,474.5 Z"/></g>
<g><path style="opacity:0.004" fill="#50504d" d="M 287.5,482.5 C 286.833,481.167 286.833,481.167 287.5,482.5 Z"/></g>
<g><path style="opacity:0.788" fill="#4d4d4e" d="M 307.5,464.5 C 299.833,472.833 291.833,480.833 283.5,488.5C 284.415,486.246 285.748,484.246 287.5,482.5C 289.5,481.167 291.167,479.5 292.5,477.5C 297.224,472.771 302.224,468.437 307.5,464.5 Z"/></g>
<g><path style="opacity:0.016" fill="#484a47" d="M 390.5,487.5 C 391.833,488.167 391.833,488.167 390.5,487.5 Z"/></g>
<g><path style="opacity:0.004" fill="#525351" d="M 398.5,488.5 C 397.833,487.167 397.833,487.167 398.5,488.5 Z"/></g>
<g><path style="opacity:0.008" fill="#494a46" d="M 517.5,487.5 C 518.833,488.167 518.833,488.167 517.5,487.5 Z"/></g>
<g><path style="opacity:0.012" fill="#4d4c4a" d="M 575.5,487.5 C 576.833,488.167 576.833,488.167 575.5,487.5 Z"/></g>
<g><path style="opacity:0.007" fill="#494848" d="M 607.5,486.5 C 608.622,488.288 608.789,490.288 608,492.5C 607.505,490.527 607.338,488.527 607.5,486.5 Z"/></g>
<g><path style="opacity:0.008" fill="#767472" d="M 416.5,489.5 C 411.833,489.5 407.167,489.5 402.5,489.5C 406.899,488.809 411.399,488.142 416,487.5C 416.464,488.094 416.631,488.761 416.5,489.5 Z"/></g>
<g><path style="opacity:0.018" fill="#747270" d="M 458.5,489.5 C 449.167,489.5 439.833,489.5 430.5,489.5C 433.563,488.799 436.73,488.132 440,487.5C 446.266,488.149 452.433,488.815 458.5,489.5 Z"/></g>
<g><path style="opacity:0.004" fill="#494a47" d="M 514.5,489.5 C 513.833,488.167 513.833,488.167 514.5,489.5 Z"/></g>
<g><path style="opacity:0.011" fill="#706e6d" d="M 552.5,489.5 C 542.167,489.5 531.833,489.5 521.5,489.5C 521.811,488.522 522.478,487.855 523.5,487.5C 531.957,488.514 540.791,488.514 550,487.5C 550.995,488.066 551.828,488.733 552.5,489.5 Z"/></g>
<g><path style="opacity:0.006" fill="#6d6b6b" d="M 566.5,489.5 C 562.167,489.5 557.833,489.5 553.5,489.5C 554.531,488.751 555.698,488.085 557,487.5C 560,488.833 563,488.833 566,487.5C 566.464,488.094 566.631,488.761 566.5,489.5 Z"/></g>
<g><path style="opacity:0.004" fill="#4d4d4d" d="M 388.5,490.5 C 387.833,489.167 387.833,489.167 388.5,490.5 Z"/></g>
<g><path style="opacity:0.98" fill="#201f1f" d="M 398.5,488.5 C 399.833,488.833 401.167,489.167 402.5,489.5C 407.167,489.5 411.833,489.5 416.5,489.5C 421.53,489.196 426.197,489.196 430.5,489.5C 439.833,489.5 449.167,489.5 458.5,489.5C 460.099,489.232 461.432,489.566 462.5,490.5C 439.327,490.831 416.327,490.498 393.5,489.5C 395.19,488.983 396.857,488.65 398.5,488.5 Z"/></g>
<g><path style="opacity:0.004" fill="#4a4b49" d="M 509.5,489.5 C 510.833,490.167 510.833,490.167 509.5,489.5 Z"/></g>
<g><path style="opacity:0.989" fill="#030303" d="M 577.5,490.5 C 578.906,490.973 579.573,491.973 579.5,493.5C 579.667,504.505 579.5,515.505 579,526.5C 578.667,515.833 578.333,505.167 578,494.5C 577.5,494 577,493.5 576.5,493C 556.256,491.69 535.923,491.023 515.5,491C 536.164,490.5 556.831,490.333 577.5,490.5 Z"/></g>
<g><path style="opacity:0.998" fill="#171818" d="M 391.5,489.5 C 391.389,490.117 391.056,490.617 390.5,491C 414.167,491.333 437.833,491.667 461.5,492C 462.701,492.903 463.535,494.069 464,495.5C 464.83,575.54 464.664,655.54 463.5,735.5C 463.808,736.308 464.308,736.975 465,737.5C 465.5,656.167 465.667,574.834 465.5,493.5C 466.666,574.999 466.832,656.666 466,738.5C 465.07,740.552 463.57,742.052 461.5,743C 437.094,743.823 412.761,743.656 388.5,742.5C 387.4,741.395 386.733,740.062 386.5,738.5C 386.5,737.833 386.5,737.167 386.5,736.5C 387.833,696.339 388.5,655.839 388.5,615C 388.333,574.5 388.167,534 388,493.5C 387.617,494.056 387.117,494.389 386.5,494.5C 386.733,492.938 387.4,491.605 388.5,490.5C 389.391,489.89 390.391,489.557 391.5,489.5 Z"/></g>
<g><path style="opacity:0.431" fill="#5d5b5c" d="M 462.5,490.5 C 464.5,490.5 465.5,491.5 465.5,493.5C 464.167,492.833 463.167,491.833 462.5,490.5 Z"/></g>
<g><path style="opacity:0.987" fill="#000000" d="M 391.5,489.5 C 392.167,489.5 392.833,489.5 393.5,489.5C 416.327,490.498 439.327,490.831 462.5,490.5C 463.167,491.833 464.167,492.833 465.5,493.5C 465.667,574.834 465.5,656.167 465,737.5C 464.308,736.975 463.808,736.308 463.5,735.5C 464.664,655.54 464.83,575.54 464,495.5C 463.535,494.069 462.701,492.903 461.5,492C 437.833,491.667 414.167,491.333 390.5,491C 391.056,490.617 391.389,490.117 391.5,489.5 Z"/></g>
<g><path style="opacity:0.005" fill="#474747" d="M 607.5,495.5 C 608.613,496.946 608.78,498.613 608,500.5C 607.506,498.866 607.34,497.199 607.5,495.5 Z"/></g>
<g><path style="opacity:0.004" fill="#4e4d4b" d="M 383.5,496.5 C 384.833,497.167 384.833,497.167 383.5,496.5 Z"/></g>
<g><path style="opacity:0.008" fill="#515250" d="M 271.5,498.5 C 270.833,497.167 270.833,497.167 271.5,498.5 Z"/></g>
<g><path style="opacity:0.831" fill="#4d4c4d" d="M 280.5,491.5 C 277.437,495.566 273.771,498.899 269.5,501.5C 270.167,500.5 270.833,499.5 271.5,498.5C 274.233,495.761 277.233,493.427 280.5,491.5 Z"/></g>
<g><path style="opacity:0.004" fill="#4c4b4b" d="M 383.5,498.5 C 384.833,499.167 384.833,499.167 383.5,498.5 Z"/></g>
<g><path style="opacity:0.005" fill="#484746" d="M 607.5,503.5 C 608.613,504.946 608.78,506.613 608,508.5C 607.506,506.866 607.34,505.199 607.5,503.5 Z"/></g>
<g><path style="opacity:0.004" fill="#464544" d="M 467.5,504.5 C 468.525,504.897 468.692,505.563 468,506.5C 467.536,505.906 467.369,505.239 467.5,504.5 Z"/></g>
<g><path style="opacity:0.004" fill="#5e5c5b" d="M 641.5,505.5 C 643.607,504.532 645.941,504.198 648.5,504.5C 648.167,505.5 647.5,506.167 646.5,506.5C 645.081,505.549 643.415,505.216 641.5,505.5 Z"/></g>
<g><path style="opacity:0.004" fill="#4b4b49" d="M 383.5,505.5 C 384.833,506.167 384.833,506.167 383.5,505.5 Z"/></g>
<g><path style="opacity:0.004" fill="#494948" d="M 496.5,507.5 C 495.833,506.167 495.833,506.167 496.5,507.5 Z"/></g>
<g><path style="opacity:0.004" fill="#4c4b49" d="M 646.5,506.5 C 645.833,507.167 645.833,507.167 646.5,506.5 Z"/></g>
<g><path style="opacity:0.004" fill="#4a4948" d="M 496.5,507.5 C 497.525,507.897 497.692,508.563 497,509.5C 496.536,508.906 496.369,508.239 496.5,507.5 Z"/></g>
<g><path style="opacity:0.004" fill="#494747" d="M 632.5,508.5 C 633.239,508.369 633.906,508.536 634.5,509C 633.563,509.692 632.897,509.525 632.5,508.5 Z"/></g>
<g><path style="opacity:0.004" fill="#494a48" d="M 383.5,509.5 C 384.833,510.167 384.833,510.167 383.5,509.5 Z"/></g>
<g><path style="opacity:0.005" fill="#474847" d="M 607.5,509.5 C 608.573,510.251 608.74,511.251 608,512.5C 607.517,511.552 607.351,510.552 607.5,509.5 Z"/></g>
<g><path style="opacity:0.004" fill="#494946" d="M 383.5,511.5 C 384.833,512.167 384.833,512.167 383.5,511.5 Z"/></g>
<g><path style="opacity:0.008" fill="#494848" d="M 383.5,513.5 C 384.525,513.897 384.692,514.563 384,515.5C 383.536,514.906 383.369,514.239 383.5,513.5 Z"/></g>
<g><path style="opacity:0.004" fill="#444242" d="M 467.5,508.5 C 468.634,510.966 468.801,513.633 468,516.5C 467.503,513.854 467.336,511.187 467.5,508.5 Z"/></g>
<g><path style="opacity:0.131" fill="#5c5a5b" d="M 616.5,513.5 C 616.027,514.906 615.027,515.573 613.5,515.5C 613.973,514.094 614.973,513.427 616.5,513.5 Z"/></g>
<g><path style="opacity:0.005" fill="#494847" d="M 383.5,516.5 C 384.629,518.628 384.796,520.961 384,523.5C 383.503,521.19 383.337,518.857 383.5,516.5 Z"/></g>
<g><path style="opacity:0.024" fill="#646464" d="M 260.5,517.5 C 261.906,517.973 262.573,518.973 262.5,520.5C 262.167,520.5 261.833,520.5 261.5,520.5C 261.082,519.778 260.416,519.278 259.5,519C 260.056,518.617 260.389,518.117 260.5,517.5 Z"/></g>
<g><path style="opacity:0.007" fill="#434242" d="M 467.5,517.5 C 468.622,519.288 468.789,521.288 468,523.5C 467.505,521.527 467.338,519.527 467.5,517.5 Z"/></g>
<g><path style="opacity:0.004" fill="#474849" d="M 646.5,519.5 C 647.833,520.167 647.833,520.167 646.5,519.5 Z"/></g>
<g><path style="opacity:0.008" fill="#4a4947" d="M 648.5,519.5 C 649.833,520.167 649.833,520.167 648.5,519.5 Z"/></g>
<g><path style="opacity:0.012" fill="#4d4d4b" d="M 680.5,519.5 C 681.833,520.167 681.833,520.167 680.5,519.5 Z"/></g>
<g><path style="opacity:0.004" fill="#575655" d="M 261.5,520.5 C 260.833,521.167 260.833,521.167 261.5,520.5 Z"/></g>
<g><path style="opacity:0.008" fill="#494848" d="M 642.5,521.5 C 642.897,520.475 643.563,520.308 644.5,521C 643.906,521.464 643.239,521.631 642.5,521.5 Z"/></g>
<g><path style="opacity:0.004" fill="#51514f" d="M 690.5,520.5 C 691.833,521.167 691.833,521.167 690.5,520.5 Z"/></g>
<g><path style="opacity:0.004" fill="#474745" d="M 640.5,521.5 C 641.833,522.167 641.833,522.167 640.5,521.5 Z"/></g>
<g><path style="opacity:0.004" fill="#424140" d="M 581.5,522.5 C 582.833,523.167 582.833,523.167 581.5,522.5 Z"/></g>
<g><path style="opacity:0.998" fill="#181919" d="M 712.5,528.5 C 717.977,531.403 723.643,534.07 729.5,536.5C 729.842,537.338 730.508,537.672 731.5,537.5C 735.223,540.551 739.223,543.218 743.5,545.5C 751.833,552.5 759.5,560.167 766.5,568.5C 766.5,568.833 766.5,569.167 766.5,569.5C 766.427,571.027 767.094,572.027 768.5,572.5C 771.66,576.148 774.327,580.148 776.5,584.5C 776.427,586.027 777.094,587.027 778.5,587.5C 783.483,596.461 787.483,605.794 790.5,615.5C 801.352,670.458 784.685,714.958 740.5,749C 717.207,764.409 691.541,771.909 663.5,771.5C 657.264,770.682 650.931,769.682 644.5,768.5C 642.562,766.837 640.228,766.171 637.5,766.5C 621.713,762.771 607.38,756.104 594.5,746.5C 593.421,744.457 591.754,743.124 589.5,742.5C 588.5,740.833 587.167,739.5 585.5,738.5C 583.167,735.5 580.5,732.833 577.5,730.5C 576.167,728.5 574.5,726.833 572.5,725.5C 572.573,723.973 571.906,722.973 570.5,722.5C 560.834,709.165 553.834,694.499 549.5,678.5C 549.768,676.901 549.434,675.568 548.5,674.5C 547.539,672.735 547.205,670.735 547.5,668.5C 546.63,656.189 546.296,643.856 546.5,631.5C 547.952,614.815 552.619,599.149 560.5,584.5C 563.445,579.555 566.779,574.888 570.5,570.5C 571.906,570.027 572.573,569.027 572.5,567.5C 581.985,555.009 593.319,544.675 606.5,536.5C 611.516,534.659 616.182,532.326 620.5,529.5C 621.492,529.672 622.158,529.338 622.5,528.5C 652.503,517.863 682.503,517.863 712.5,528.5 Z M 673.5,546.5 C 673.783,547.289 674.283,547.956 675,548.5C 677.605,547.186 680.105,547.186 682.5,548.5C 683.833,548.5 685.167,548.5 686.5,548.5C 699.78,551.144 711.78,556.477 722.5,564.5C 723.492,564.328 724.158,564.662 724.5,565.5C 723.453,566.078 723.62,566.744 725,567.5C 725.399,567.272 725.565,566.938 725.5,566.5C 727.027,566.427 728.027,567.094 728.5,568.5C 727.243,569.623 727.576,570.289 729.5,570.5C 730.006,572.105 730.673,572.439 731.5,571.5C 732.391,572.11 733.391,572.443 734.5,572.5C 736.167,574.5 737.833,576.5 739.5,578.5C 740.5,578.833 741.167,579.5 741.5,580.5C 743.156,582.46 744.823,584.46 746.5,586.5C 745.167,586.833 745.167,587.167 746.5,587.5C 747.167,588.167 747.833,588.833 748.5,589.5C 749.728,590.306 750.728,591.306 751.5,592.5C 751.285,594.179 751.952,595.179 753.5,595.5C 751.989,597.838 752.323,598.504 754.5,597.5C 756.105,600.378 757.439,603.378 758.5,606.5C 772.828,638.258 771.162,669.258 753.5,699.5C 752.094,699.973 751.427,700.973 751.5,702.5C 747.833,706.5 744.167,710.5 740.5,714.5C 738.766,717.2 736.432,719.2 733.5,720.5C 718.229,733.633 700.563,741.633 680.5,744.5C 672.684,744.125 665.017,744.125 657.5,744.5C 643.609,742.44 630.609,737.773 618.5,730.5C 610.246,725.909 603.246,719.909 597.5,712.5C 593.408,708.742 590.074,704.409 587.5,699.5C 586.091,697.028 584.424,694.695 582.5,692.5C 582.5,691.833 582.5,691.167 582.5,690.5C 581.833,690.167 581.167,689.833 580.5,689.5C 579.833,686.833 579.167,684.167 578.5,681.5C 576.387,677.419 574.72,673.086 573.5,668.5C 573.286,666.856 573.62,665.356 574.5,664C 573.906,663.536 573.239,663.369 572.5,663.5C 568.62,635.361 574.62,609.694 590.5,586.5C 611.117,559.028 638.784,545.694 673.5,546.5 Z"/></g>
<g><path style="opacity:0.008" fill="#444342" d="M 467.5,524.5 C 468.525,524.897 468.692,525.563 468,526.5C 467.536,525.906 467.369,525.239 467.5,524.5 Z"/></g>
<g><path style="opacity:0.004" fill="#464644" d="M 581.5,526.5 C 582.833,527.167 582.833,527.167 581.5,526.5 Z"/></g>
<g><path style="opacity:0.009" fill="#484648" d="M 622.5,528.5 C 621.508,528.328 620.842,528.662 620.5,529.5C 618.621,529.607 618.288,529.107 619.5,528C 620.749,527.26 621.749,527.427 622.5,528.5 Z"/></g>
<g><path style="opacity:0.004" fill="#514e4e" d="M 712.5,527.5 C 713.833,528.167 713.833,528.167 712.5,527.5 Z"/></g>
<g><path style="opacity:0.004" fill="#42423f" d="M 467.5,528.5 C 468.833,529.167 468.833,529.167 467.5,528.5 Z"/></g>
<g><path style="opacity:0.004" fill="#484847" d="M 616.5,529.5 C 615.833,528.167 615.833,528.167 616.5,529.5 Z"/></g>
<g><path style="opacity:0.012" fill="#474746" d="M 616.5,529.5 C 617.833,530.167 617.833,530.167 616.5,529.5 Z"/></g>
<g><path style="opacity:0.006" fill="#434142" d="M 467.5,530.5 C 468.525,530.897 468.692,531.563 468,532.5C 467.536,531.906 467.369,531.239 467.5,530.5 Z"/></g>
<g><path style="opacity:0.004" fill="#474845" d="M 612.5,531.5 C 613.833,532.167 613.833,532.167 612.5,531.5 Z"/></g>
<g><path style="opacity:0.008" fill="#434042" d="M 467.5,533.5 C 468.525,533.897 468.692,534.563 468,535.5C 467.536,534.906 467.369,534.239 467.5,533.5 Z"/></g>
<g><path style="opacity:0.016" fill="#474645" d="M 383.5,535.5 C 384.573,536.251 384.74,537.251 384,538.5C 383.517,537.552 383.351,536.552 383.5,535.5 Z"/></g>
<g><path style="opacity:0.004" fill="#494748" d="M 606.5,536.5 C 605.833,535.167 605.833,535.167 606.5,536.5 Z"/></g>
<g><path style="opacity:0.008" fill="#585754" d="M 729.5,535.5 C 730.833,536.167 730.833,536.167 729.5,535.5 Z"/></g>
<g><path style="opacity:0.004" fill="#4b4948" d="M 603.5,536.5 C 604.833,537.167 604.833,537.167 603.5,536.5 Z"/></g>
<g><path style="opacity:0.004" fill="#595a58" d="M 731.5,536.5 C 732.833,537.167 732.833,537.167 731.5,536.5 Z"/></g>
<g><path style="opacity:0.004" fill="#424142" d="M 467.5,537.5 C 468.525,537.897 468.692,538.563 468,539.5C 467.536,538.906 467.369,538.239 467.5,537.5 Z"/></g>
<g><path style="opacity:0.004" fill="#5b5b58" d="M 280.5,538.5 C 279.833,539.167 279.833,539.167 280.5,538.5 Z"/></g>
<g><path style="opacity:0.028" fill="#636260" d="M 499.5,512.5 C 499.5,525.5 499.5,538.5 499.5,551.5C 498.761,551.631 498.094,551.464 497.5,551C 498.158,538.069 498.825,525.235 499.5,512.5 Z"/></g>
<g><path style="opacity:0.004" fill="#474544" d="M 383.5,539.5 C 384.833,540.167 384.833,540.167 383.5,539.5 Z"/></g>
<g><path style="opacity:0.007" fill="#474545" d="M 383.5,541.5 C 384.573,542.251 384.74,543.251 384,544.5C 383.517,543.552 383.351,542.552 383.5,541.5 Z"/></g>
<g><path style="opacity:0.004" fill="#424241" d="M 467.5,541.5 C 468.833,542.167 468.833,542.167 467.5,541.5 Z"/></g>
<g><path style="opacity:0.004" fill="#454544" d="M 496.5,543.5 C 497.833,544.167 497.833,544.167 496.5,543.5 Z"/></g>
<g><path style="opacity:0.004" fill="#434241" d="M 467.5,544.5 C 468.573,545.251 468.74,546.251 468,547.5C 467.517,546.552 467.351,545.552 467.5,544.5 Z"/></g>
<g><path style="opacity:0.004" fill="#595958" d="M 743.5,544.5 C 744.833,545.167 744.833,545.167 743.5,544.5 Z"/></g>
<g><path style="opacity:0.008" fill="#464544" d="M 383.5,545.5 C 384.833,546.167 384.833,546.167 383.5,545.5 Z"/></g>
<g><path style="opacity:0.945" fill="#494848" d="M 673.5,546.5 C 676.85,546.335 680.183,546.502 683.5,547C 684.737,547.232 685.737,547.732 686.5,548.5C 685.167,548.5 683.833,548.5 682.5,548.5C 680.105,547.186 677.605,547.186 675,548.5C 674.283,547.956 673.783,547.289 673.5,546.5 Z"/></g>
<g><path style="opacity:0.005" fill="#424142" d="M 467.5,548.5 C 468.573,549.251 468.74,550.251 468,551.5C 467.517,550.552 467.351,549.552 467.5,548.5 Z"/></g>
<g><path style="opacity:0.004" fill="#4f4c4d" d="M 682.5,548.5 C 681.828,549.267 680.995,549.934 680,550.5C 679.812,548.939 680.645,548.272 682.5,548.5 Z"/></g>
<g><path style="opacity:0.008" fill="#484646" d="M 383.5,551.5 C 384.622,553.288 384.789,555.288 384,557.5C 383.505,555.527 383.338,553.527 383.5,551.5 Z"/></g>
<g><path style="opacity:0.998" fill="#181818" d="M 521.5,489.5 C 531.833,489.5 542.167,489.5 552.5,489.5C 552.833,489.5 553.167,489.5 553.5,489.5C 557.833,489.5 562.167,489.5 566.5,489.5C 568.356,489.041 570.189,488.708 572,488.5C 574.03,488.954 575.863,489.62 577.5,490.5C 556.831,490.333 536.164,490.5 515.5,491C 535.923,491.023 556.256,491.69 576.5,493C 577,493.5 577.5,494 578,494.5C 578.333,505.167 578.667,515.833 579,526.5C 579.5,515.505 579.667,504.505 579.5,493.5C 581.987,504.978 582.154,516.644 580,528.5C 552.588,550.328 535.088,578.328 527.5,612.5C 527.66,610.801 527.494,609.134 527,607.5C 521.652,629.784 521.319,652.117 526,674.5C 526.495,672.527 526.662,670.527 526.5,668.5C 528.861,679.59 532.027,690.59 536,701.5C 537.608,705.056 539.441,708.389 541.5,711.5C 541.992,713.819 542.992,715.819 544.5,717.5C 545.811,720.135 547.478,722.469 549.5,724.5C 552.374,729.554 555.874,734.22 560,738.5C 560.74,739.749 560.573,740.749 559.5,741.5C 559.631,740.624 559.298,739.957 558.5,739.5C 549.495,740.806 540.328,741.473 531,741.5C 522.167,741.333 513.333,741.167 504.5,741C 502.696,739.188 501.696,739.354 501.5,741.5C 501.167,741.5 500.833,741.5 500.5,741.5C 499.699,739.958 499.366,738.292 499.5,736.5C 495.551,736.307 495.551,735.807 499.5,735C 499.277,719.334 499.277,703.501 499.5,687.5C 500.331,700.66 500.831,713.994 501,727.5C 501.343,652.113 501.676,576.779 502,501.5C 501.617,502.056 501.117,502.389 500.5,502.5C 503.262,496.07 507.928,491.737 514.5,489.5C 517.041,489.15 519.374,489.15 521.5,489.5 Z"/></g>
<g><path style="opacity:0.004" fill="#464745" d="M 496.5,554.5 C 497.833,555.167 497.833,555.167 496.5,554.5 Z"/></g>
<g><path style="opacity:0.007" fill="#424041" d="M 467.5,556.5 C 468.622,558.288 468.789,560.288 468,562.5C 467.505,560.527 467.338,558.527 467.5,556.5 Z"/></g>
<g><path style="opacity:0.007" fill="#474746" d="M 383.5,559.5 C 384.598,560.601 384.765,561.934 384,563.5C 383.51,562.207 383.343,560.873 383.5,559.5 Z"/></g>
<g><path style="opacity:0.004" fill="#444443" d="M 496.5,559.5 C 497.833,560.167 497.833,560.167 496.5,559.5 Z"/></g>
<g><path style="opacity:0.004" fill="#424343" d="M 496.5,560.5 C 495.833,561.167 495.833,561.167 496.5,560.5 Z"/></g>
<g><path style="opacity:0.007" fill="#424040" d="M 467.5,564.5 C 468.622,566.288 468.789,568.288 468,570.5C 467.505,568.527 467.338,566.527 467.5,564.5 Z"/></g>
<g><path style="opacity:0.005" fill="#454444" d="M 383.5,565.5 C 384.638,568.304 384.805,571.304 384,574.5C 383.502,571.518 383.335,568.518 383.5,565.5 Z"/></g>
<g><path style="opacity:0.004" fill="#454543" d="M 496.5,567.5 C 497.833,568.167 497.833,568.167 496.5,567.5 Z"/></g>
<g><path style="opacity:0.004" fill="#5a5a5a" d="M 766.5,567.5 C 767.833,568.167 767.833,568.167 766.5,567.5 Z"/></g>
<g><path style="opacity:0.004" fill="#5a5b5a" d="M 289.5,568.5 C 290.833,569.167 290.833,569.167 289.5,568.5 Z"/></g>
<g><path style="opacity:0.831" fill="#505051" d="M 572.5,567.5 C 572.573,569.027 571.906,570.027 570.5,570.5C 570.427,568.973 571.094,567.973 572.5,567.5 Z"/></g>
<g><path style="opacity:0.004" fill="#585857" d="M 728.5,568.5 C 728.5,569.167 728.833,569.5 729.5,569.5C 729.5,569.833 729.5,570.167 729.5,570.5C 727.576,570.289 727.243,569.623 728.5,568.5 Z"/></g>
<g><path style="opacity:0.875" fill="#565656" d="M 730.5,569.5 C 732.404,569.738 733.738,570.738 734.5,572.5C 733.391,572.443 732.391,572.11 731.5,571.5C 731.167,570.833 730.833,570.167 730.5,569.5 Z"/></g>
<g><path style="opacity:0.933" fill="#515051" d="M 766.5,569.5 C 767.906,569.973 768.573,570.973 768.5,572.5C 767.094,572.027 766.427,571.027 766.5,569.5 Z"/></g>
<g><path style="opacity:0.998" fill="#191919" d="M 680.5,573.5 C 679.911,577.971 680.577,581.971 682.5,585.5C 684.117,586.038 685.784,586.371 687.5,586.5C 701.166,593.184 708.499,604.184 709.5,619.5C 708.5,620.167 707.5,620.833 706.5,621.5C 700.5,621.5 694.5,621.5 688.5,621.5C 688.573,619.973 687.906,618.973 686.5,618.5C 685.313,616.928 684.313,615.261 683.5,613.5C 683.167,612.5 682.5,611.833 681.5,611.5C 679.737,608.444 677.07,606.611 673.5,606C 659.435,603.747 652.602,609.58 653,623.5C 655.596,627.39 659.096,630.223 663.5,632C 672.588,634.686 681.588,637.52 690.5,640.5C 694.143,643.135 697.81,645.801 701.5,648.5C 705.427,652.431 708.093,657.098 709.5,662.5C 709.232,664.099 709.566,665.432 710.5,666.5C 712.548,688.738 702.881,703.071 681.5,709.5C 681.665,713.182 681.499,716.848 681,720.5C 680.535,721.931 679.701,723.097 678.5,724C 673.292,725.397 667.959,725.897 662.5,725.5C 661.205,724.512 659.872,723.512 658.5,722.5C 658.672,721.508 658.338,720.842 657.5,720.5C 657.5,716.833 657.5,713.167 657.5,709.5C 654.833,708.833 652.167,708.167 649.5,707.5C 649.167,706.167 648.833,706.167 648.5,707.5C 647.167,706.167 645.833,704.833 644.5,703.5C 644.027,702.094 643.027,701.427 641.5,701.5C 630.955,694.131 626.955,684.464 629.5,672.5C 636.078,671.54 642.745,671.207 649.5,671.5C 651.273,674.18 652.607,677.18 653.5,680.5C 654.167,683.167 655.833,684.833 658.5,685.5C 660.368,686.263 662.035,687.263 663.5,688.5C 666.373,690.482 669.373,690.815 672.5,689.5C 683.404,687.013 687.737,680.346 685.5,669.5C 684.585,667.246 683.252,665.246 681.5,663.5C 681.027,662.094 680.027,661.427 678.5,661.5C 664.058,659.232 650.724,654.232 638.5,646.5C 636.391,643.434 634.058,641.267 631.5,640C 632.167,639.667 632.833,639.333 633.5,639C 624.481,622.89 626.148,607.89 638.5,594C 643.38,589.56 649.046,586.727 655.5,585.5C 656.833,585.5 657.5,584.833 657.5,583.5C 657.335,579.818 657.501,576.152 658,572.5C 659.045,571.627 659.878,570.627 660.5,569.5C 665.75,568.385 671.083,568.219 676.5,569C 678.751,569.748 680.084,571.248 680.5,573.5 Z"/></g>
<g><path style="opacity:0.008" fill="#41403f" d="M 467.5,571.5 C 468.598,572.601 468.765,573.934 468,575.5C 467.51,574.207 467.343,572.873 467.5,571.5 Z"/></g>
<g><path style="opacity:0.004" fill="#5b5e5c" d="M 771.5,573.5 C 772.833,574.167 772.833,574.167 771.5,573.5 Z"/></g>
<g><path style="opacity:0.998" fill="#1e1e1e" d="M 349.5,572.5 C 349.631,573.376 349.298,574.043 348.5,574.5C 325.876,573.344 303.21,573.178 280.5,574C 279.584,574.374 278.75,574.874 278,575.5C 277.167,630.17 277.333,684.836 278.5,739.5C 279.308,739.808 279.975,740.308 280.5,741C 303.107,741.48 325.44,741.646 347.5,741.5C 324.51,742.5 301.51,742.833 278.5,742.5C 278.167,742.5 277.833,742.5 277.5,742.5C 276.496,741.317 275.662,739.984 275,738.5C 274.333,684.5 274.333,630.5 275,576.5C 275.785,574.714 276.951,573.214 278.5,572C 282.421,571.797 286.255,571.297 290,570.5C 308.015,571.808 326.348,571.808 345,570.5C 346.728,570.899 348.228,571.566 349.5,572.5 Z"/></g>
<g><path style="opacity:0.996" fill="#020202" d="M 352.5,731.5 C 353.625,732.348 353.625,733.348 352.5,734.5C 351.71,735.609 351.21,736.942 351,738.5C 350.333,684.167 350.333,629.833 351,575.5C 351.167,627.668 351.667,679.668 352.5,731.5 Z"/></g>
<g><path style="opacity:0.004" fill="#4b4c4b" d="M 353.5,575.5 C 354.833,576.167 354.833,576.167 353.5,575.5 Z"/></g>
<g><path style="opacity:0.004" fill="#454444" d="M 496.5,575.5 C 497.833,576.167 497.833,576.167 496.5,575.5 Z"/></g>
<g><path style="opacity:0.005" fill="#494747" d="M 559.5,575.5 C 560.573,576.251 560.74,577.251 560,578.5C 559.517,577.552 559.351,576.552 559.5,575.5 Z"/></g>
<g><path style="opacity:0.004" fill="#454646" d="M 541.5,576.5 C 542.833,577.167 542.833,577.167 541.5,576.5 Z"/></g>
<g><path style="opacity:0.012" fill="#454444" d="M 383.5,575.5 C 384.598,576.601 384.765,577.934 384,579.5C 383.51,578.207 383.343,576.873 383.5,575.5 Z"/></g>
<g><path style="opacity:0.004" fill="#414140" d="M 467.5,577.5 C 468.833,578.167 468.833,578.167 467.5,577.5 Z"/></g>
<g><path style="opacity:0.009" fill="#555654" d="M 271.5,576.5 C 273.441,578.011 273.941,580.011 273,582.5C 272.495,580.482 271.995,578.482 271.5,576.5 Z"/></g>
<g><path style="opacity:0.004" fill="#464545" d="M 496.5,578.5 C 497.525,578.897 497.692,579.563 497,580.5C 496.536,579.906 496.369,579.239 496.5,578.5 Z"/></g>
<g><path style="opacity:0.016" fill="#5d5d5c" d="M 657.5,583.5 C 657.5,584.833 656.833,585.5 655.5,585.5C 655.34,583.801 655.506,582.134 656,580.5C 656.232,581.737 656.732,582.737 657.5,583.5 Z"/></g>
<g><path style="opacity:0.225" fill="#717171" d="M 680.5,573.5 C 681.167,577.167 681.833,580.833 682.5,584.5C 682.5,584.833 682.5,585.167 682.5,585.5C 680.577,581.971 679.911,577.971 680.5,573.5 Z"/></g>
<g><path style="opacity:0.008" fill="#413f3e" d="M 467.5,580.5 C 468.573,581.251 468.74,582.251 468,583.5C 467.517,582.552 467.351,581.552 467.5,580.5 Z"/></g>
<g><path style="opacity:0.004" fill="#494846" d="M 541.5,581.5 C 542.833,582.167 542.833,582.167 541.5,581.5 Z"/></g>
<g><path style="opacity:0.004" fill="#484747" d="M 539.5,582.5 C 540.833,583.167 540.833,583.167 539.5,582.5 Z"/></g>
<g><path style="opacity:0.004" fill="#454643" d="M 496.5,583.5 C 497.833,584.167 497.833,584.167 496.5,583.5 Z"/></g>
<g><path style="opacity:0.012" fill="#434243" d="M 560.5,584.5 C 559.833,583.167 559.833,583.167 560.5,584.5 Z"/></g>
<g><path style="opacity:0.004" fill="#5f5f5e" d="M 778.5,584.5 C 779.833,585.167 779.833,585.167 778.5,584.5 Z"/></g>
<g><path style="opacity:0.008" fill="#565653" d="M 272.5,585.5 C 273.525,585.897 273.692,586.563 273,587.5C 272.536,586.906 272.369,586.239 272.5,585.5 Z"/></g>
<g><path style="opacity:0.004" fill="#41423f" d="M 467.5,585.5 C 468.833,586.167 468.833,586.167 467.5,585.5 Z"/></g>
<g><path style="opacity:0.004" fill="#464543" d="M 496.5,585.5 C 497.573,586.251 497.74,587.251 497,588.5C 496.517,587.552 496.351,586.552 496.5,585.5 Z"/></g>
<g><path style="opacity:0.392" fill="#615f5e" d="M 776.5,584.5 C 777.167,584.833 777.833,585.167 778.5,585.5C 778.5,586.167 778.5,586.833 778.5,587.5C 777.094,587.027 776.427,586.027 776.5,584.5 Z"/></g>
<g><path style="opacity:0.004" fill="#424041" d="M 467.5,589.5 C 468.525,589.897 468.692,590.563 468,591.5C 467.536,590.906 467.369,590.239 467.5,589.5 Z"/></g>
<g><path style="opacity:0.004" fill="#474645" d="M 383.5,590.5 C 384.525,590.897 384.692,591.563 384,592.5C 383.536,591.906 383.369,591.239 383.5,590.5 Z"/></g>
<g><path style="opacity:0.004" fill="#525553" d="M 272.5,591.5 C 273.833,592.167 273.833,592.167 272.5,591.5 Z"/></g>
<g><path style="opacity:0.004" fill="#424041" d="M 467.5,592.5 C 468.573,593.251 468.74,594.251 468,595.5C 467.517,594.552 467.351,593.552 467.5,592.5 Z"/></g>
<g><path style="opacity:0.011" fill="#535352" d="M 272.5,593.5 C 273.598,594.601 273.765,595.934 273,597.5C 272.51,596.207 272.343,594.873 272.5,593.5 Z"/></g>
<g><path style="opacity:0.008" fill="#484546" d="M 551.5,593.5 C 552.833,594.167 552.833,594.167 551.5,593.5 Z"/></g>
<g><path style="opacity:0.008" fill="#777474" d="M 751.5,592.5 C 752.401,593.29 753.068,594.29 753.5,595.5C 751.952,595.179 751.285,594.179 751.5,592.5 Z"/></g>
<g><path style="opacity:0.004" fill="#464745" d="M 383.5,594.5 C 384.833,595.167 384.833,595.167 383.5,594.5 Z"/></g>
<g><path style="opacity:0.004" fill="#474845" d="M 496.5,594.5 C 497.833,595.167 497.833,595.167 496.5,594.5 Z"/></g>
<g><path style="opacity:0.999" fill="#171717" d="M 349.5,572.5 C 350.458,572.953 351.292,573.619 352,574.5C 352.236,576.764 352.736,578.931 353.5,581C 352.561,631.422 352.228,681.589 352.5,731.5C 351.667,679.668 351.167,627.668 351,575.5C 350.333,629.833 350.333,684.167 351,738.5C 351.21,736.942 351.71,735.609 352.5,734.5C 353.25,738.008 351.917,740.842 348.5,743C 324.996,743.83 301.663,743.663 278.5,742.5C 301.51,742.833 324.51,742.5 347.5,741.5C 325.44,741.646 303.107,741.48 280.5,741C 279.975,740.308 279.308,739.808 278.5,739.5C 277.333,684.836 277.167,630.17 278,575.5C 278.75,574.874 279.584,574.374 280.5,574C 303.21,573.178 325.876,573.344 348.5,574.5C 349.298,574.043 349.631,573.376 349.5,572.5 Z"/></g>
<g><path style="opacity:0.004" fill="#42413d" d="M 467.5,596.5 C 468.833,597.167 468.833,597.167 467.5,596.5 Z"/></g>
<g><path style="opacity:0.004" fill="#474643" d="M 383.5,597.5 C 384.833,598.167 384.833,598.167 383.5,597.5 Z"/></g>
<g><path style="opacity:0.004" fill="#656462" d="M 753.5,595.5 C 754.338,595.842 754.672,596.508 754.5,597.5C 752.323,598.504 751.989,597.838 753.5,595.5 Z"/></g>
<g><path style="opacity:0.004" fill="#434543" d="M 532.5,598.5 C 533.833,599.167 533.833,599.167 532.5,598.5 Z"/></g>
<g><path style="opacity:0.008" fill="#525354" d="M 272.5,599.5 C 273.833,600.167 273.833,600.167 272.5,599.5 Z"/></g>
<g><path style="opacity:0.004" fill="#3f3f3f" d="M 467.5,599.5 C 468.833,600.167 468.833,600.167 467.5,599.5 Z"/></g>
<g><path style="opacity:0.004" fill="#454444" d="M 495.5,599.5 C 496.239,599.369 496.906,599.536 497.5,600C 497.056,601.533 496.723,603.033 496.5,604.5C 495.548,602.955 495.215,601.288 495.5,599.5 Z"/></g>
<g><path style="opacity:0.004" fill="#61625d" d="M 789.5,599.5 C 790.833,600.167 790.833,600.167 789.5,599.5 Z"/></g>
<g><path style="opacity:0.004" fill="#535354" d="M 272.5,600.5 C 272.5,600.833 272.5,601.167 272.5,601.5C 271.83,601.019 271.83,600.685 272.5,600.5 Z"/></g>
<g><path style="opacity:0.012" fill="#454342" d="M 383.5,599.5 C 384.65,604.316 384.816,609.316 384,614.5C 383.501,609.511 383.334,604.511 383.5,599.5 Z"/></g>
<g><path style="opacity:0.013" fill="#5f5d5b" d="M 499.5,592.5 C 499.5,597.5 499.5,602.5 499.5,607.5C 498.81,602.767 498.144,597.934 497.5,593C 498.094,592.536 498.761,592.369 499.5,592.5 Z"/></g>
<g><path style="opacity:0.006" fill="#535353" d="M 272.5,601.5 C 273.622,603.288 273.789,605.288 273,607.5C 271.668,605.45 271.502,603.45 272.5,601.5 Z"/></g>
<g><path style="opacity:0.004" fill="#40423f" d="M 467.5,602.5 C 468.833,603.167 468.833,603.167 467.5,602.5 Z"/></g>
<g><path style="opacity:0.004" fill="#464544" d="M 531.5,602.5 C 532.833,603.167 532.833,603.167 531.5,602.5 Z"/></g>
<g><path style="opacity:0.992" fill="#080808" d="M 386.5,736.5 C 386.5,655.833 386.5,575.167 386.5,494.5C 387.117,494.389 387.617,494.056 388,493.5C 388.167,534 388.333,574.5 388.5,615C 388.5,655.839 387.833,696.339 386.5,736.5 Z"/></g>
<g><path style="opacity:0.008" fill="#423f40" d="M 467.5,604.5 C 468.573,605.251 468.74,606.251 468,607.5C 467.517,606.552 467.351,605.552 467.5,604.5 Z"/></g>
<g><path style="opacity:0.008" fill="#434642" d="M 496.5,607.5 C 497.833,608.167 497.833,608.167 496.5,607.5 Z"/></g>
<g><path style="opacity:0.005" fill="#545454" d="M 272.5,609.5 C 273.573,610.251 273.74,611.251 273,612.5C 272.517,611.552 272.351,610.552 272.5,609.5 Z"/></g>
<g><path style="opacity:0.004" fill="#41403f" d="M 467.5,609.5 C 468.525,609.897 468.692,610.563 468,611.5C 467.536,610.906 467.369,610.239 467.5,609.5 Z"/></g>
<g><path style="opacity:0.008" fill="#62605f" d="M 789.5,610.5 C 790.833,611.167 790.833,611.167 789.5,610.5 Z"/></g>
<g><path style="opacity:0.006" fill="#545454" d="M 272.5,613.5 C 273.634,615.966 273.801,618.633 273,621.5C 272.626,620.584 272.126,619.75 271.5,619C 271.67,617.43 272.003,615.597 272.5,613.5 Z"/></g>
<g><path style="opacity:0.004" fill="#42413f" d="M 467.5,613.5 C 468.525,613.897 468.692,614.563 468,615.5C 467.536,614.906 467.369,614.239 467.5,613.5 Z"/></g>
<g><path style="opacity:0.004" fill="#666464" d="M 790.5,615.5 C 790.369,614.761 790.536,614.094 791,613.5C 791.692,614.437 791.525,615.103 790.5,615.5 Z"/></g>
<g><path style="opacity:0.004" fill="#444743" d="M 496.5,615.5 C 497.833,616.167 497.833,616.167 496.5,615.5 Z"/></g>
<g><path style="opacity:0.008" fill="#454544" d="M 383.5,616.5 C 384.573,617.251 384.74,618.251 384,619.5C 383.517,618.552 383.351,617.552 383.5,616.5 Z"/></g>
<g><path style="opacity:0.004" fill="#403e3e" d="M 467.5,617.5 C 468.833,618.167 468.833,618.167 467.5,617.5 Z"/></g>
<g><path style="opacity:0.004" fill="#464444" d="M 543.5,617.5 C 544.833,618.167 544.833,618.167 543.5,617.5 Z"/></g>
<g><path style="opacity:0.004" fill="#454543" d="M 546.5,617.5 C 547.833,618.167 547.833,618.167 546.5,617.5 Z"/></g>
<g><path style="opacity:0.118" fill="#656364" d="M 686.5,618.5 C 687.906,618.973 688.573,619.973 688.5,621.5C 687.094,621.027 686.427,620.027 686.5,618.5 Z"/></g>
<g><path style="opacity:0.004" fill="#454644" d="M 383.5,620.5 C 384.833,621.167 384.833,621.167 383.5,620.5 Z"/></g>
<g><path style="opacity:0.004" fill="#41403f" d="M 467.5,619.5 C 468.573,620.251 468.74,621.251 468,622.5C 467.517,621.552 467.351,620.552 467.5,619.5 Z"/></g>
<g><path style="opacity:0.272" fill="#6e6d6b" d="M 688.5,621.5 C 694.5,621.5 700.5,621.5 706.5,621.5C 706.217,622.289 705.717,622.956 705,623.5C 699.4,622.854 693.9,622.187 688.5,621.5 Z"/></g>
<g><path style="opacity:0.006" fill="#555454" d="M 272.5,623.5 C 273.613,624.946 273.78,626.613 273,628.5C 272.506,626.866 272.34,625.199 272.5,623.5 Z"/></g>
<g><path style="opacity:0.004" fill="#454544" d="M 495.5,625.5 C 496.833,626.167 496.833,626.167 495.5,625.5 Z"/></g>
<g><path style="opacity:0.998" fill="#222222" d="M 527.5,612.5 C 526.5,623.169 525.5,633.835 524.5,644.5C 525.3,652.3 525.967,660.3 526.5,668.5C 526.662,670.527 526.495,672.527 526,674.5C 521.319,652.117 521.652,629.784 527,607.5C 527.494,609.134 527.66,610.801 527.5,612.5 Z"/></g>
<g><path style="opacity:0.004" fill="#454342" d="M 383.5,623.5 C 384.613,624.946 384.78,626.613 384,628.5C 383.506,626.866 383.34,625.199 383.5,623.5 Z"/></g>
<g><path style="opacity:0.008" fill="#404140" d="M 467.5,626.5 C 468.833,627.167 468.833,627.167 467.5,626.5 Z"/></g>
<g><path style="opacity:0.004" fill="#484747" d="M 544.5,625.5 C 545.598,626.601 545.765,627.934 545,629.5C 544.51,628.207 544.343,626.873 544.5,625.5 Z"/></g>
<g><path style="opacity:0.008" fill="#424140" d="M 467.5,628.5 C 468.573,629.251 468.74,630.251 468,631.5C 467.517,630.552 467.351,629.552 467.5,628.5 Z"/></g>
<g><path style="opacity:0.008" fill="#555554" d="M 271.5,632.5 C 271.56,631.957 271.893,631.624 272.5,631.5C 273.647,633.765 273.814,636.098 273,638.5C 271.955,636.258 271.455,634.258 271.5,632.5 Z"/></g>
<g><path style="opacity:0.009" fill="#484747" d="M 526.5,631.5 C 527.613,632.946 527.78,634.613 527,636.5C 526.506,634.866 526.34,633.199 526.5,631.5 Z"/></g>
<g><path style="opacity:0.008" fill="#4d4c48" d="M 543.5,631.5 C 544.833,632.167 544.833,632.167 543.5,631.5 Z"/></g>
<g><path style="opacity:0.006" fill="#454444" d="M 383.5,629.5 C 384.629,631.628 384.796,633.961 384,636.5C 383.503,634.19 383.337,631.857 383.5,629.5 Z"/></g>
<g><path style="opacity:0.004" fill="#414041" d="M 467.5,633.5 C 468.525,633.897 468.692,634.563 468,635.5C 467.536,634.906 467.369,634.239 467.5,633.5 Z"/></g>
<g><path style="opacity:0.004" fill="#444645" d="M 496.5,633.5 C 497.833,634.167 497.833,634.167 496.5,633.5 Z"/></g>
<g><path style="opacity:0.009" fill="#413f3f" d="M 467.5,636.5 C 468.573,637.251 468.74,638.251 468,639.5C 467.517,638.552 467.351,637.552 467.5,636.5 Z"/></g>
<g><path style="opacity:0.004" fill="#474746" d="M 526.5,637.5 C 527.525,637.897 527.692,638.563 527,639.5C 526.536,638.906 526.369,638.239 526.5,637.5 Z"/></g>
<g><path style="opacity:0.008" fill="#565756" d="M 272.5,639.5 C 273.833,640.167 273.833,640.167 272.5,639.5 Z"/></g>
<g><path style="opacity:0.004" fill="#6b6a6a" d="M 795.5,639.5 C 796.833,640.167 796.833,640.167 795.5,639.5 Z"/></g>
<g><path style="opacity:0.004" fill="#575756" d="M 271.5,642.5 C 271.56,641.957 271.893,641.624 272.5,641.5C 273.583,642.365 273.749,643.365 273,644.5C 272.722,643.584 272.222,642.918 271.5,642.5 Z"/></g>
<g><path style="opacity:0.008" fill="#414040" d="M 467.5,641.5 C 468.525,641.897 468.692,642.563 468,643.5C 467.536,642.906 467.369,642.239 467.5,641.5 Z"/></g>
<g><path style="opacity:0.01" fill="#454443" d="M 383.5,639.5 C 384.613,640.946 384.78,642.613 384,644.5C 383.506,642.866 383.34,641.199 383.5,639.5 Z"/></g>
<g><path style="opacity:0.004" fill="#464844" d="M 496.5,642.5 C 497.833,643.167 497.833,643.167 496.5,642.5 Z"/></g>
<g><path style="opacity:0.991" fill="#181818" d="M 499.5,687.5 C 499.318,681.986 499.318,676.653 499.5,671.5C 499.5,666.5 499.5,661.5 499.5,656.5C 498.318,639.849 498.318,623.515 499.5,607.5C 499.5,602.5 499.5,597.5 499.5,592.5C 498.857,578.488 498.857,564.821 499.5,551.5C 499.5,538.5 499.5,525.5 499.5,512.5C 498.672,510.239 498.339,508.072 498.5,506C 499.085,504.698 499.751,503.531 500.5,502.5C 501.117,502.389 501.617,502.056 502,501.5C 501.676,576.779 501.343,652.113 501,727.5C 500.831,713.994 500.331,700.66 499.5,687.5 Z"/></g>
<g><path style="opacity:0.005" fill="#423f40" d="M 467.5,644.5 C 468.598,645.601 468.765,646.934 468,648.5C 467.51,647.207 467.343,645.873 467.5,644.5 Z"/></g>
<g><path style="opacity:0.004" fill="#454443" d="M 383.5,645.5 C 384.629,647.628 384.796,649.961 384,652.5C 383.503,650.19 383.337,647.857 383.5,645.5 Z"/></g>
<g><path style="opacity:0.004" fill="#545453" d="M 272.5,647.5 C 273.833,648.167 273.833,648.167 272.5,647.5 Z"/></g>
<g><path style="opacity:0.955" fill="#474747" d="M 546.5,631.5 C 546.296,643.856 546.63,656.189 547.5,668.5C 547.167,668.5 546.833,668.5 546.5,668.5C 546.784,666.585 546.451,664.919 545.5,663.5C 545.554,656.804 545.221,650.304 544.5,644C 545.08,639.684 545.747,635.517 546.5,631.5 Z"/></g>
<g><path style="opacity:0.008" fill="#40403f" d="M 467.5,649.5 C 468.833,650.167 468.833,650.167 467.5,649.5 Z"/></g>
<g><path style="opacity:0.012" fill="#565654" d="M 272.5,649.5 C 273.573,650.251 273.74,651.251 273,652.5C 272.517,651.552 272.351,650.552 272.5,649.5 Z"/></g>
<g><path style="opacity:0.004" fill="#464543" d="M 495.5,651.5 C 496.833,652.167 496.833,652.167 495.5,651.5 Z"/></g>
<g><path style="opacity:0.004" fill="#444442" d="M 526.5,651.5 C 527.833,652.167 527.833,652.167 526.5,651.5 Z"/></g>
<g><path style="opacity:0.004" fill="#454645" d="M 383.5,653.5 C 384.833,654.167 384.833,654.167 383.5,653.5 Z"/></g>
<g><path style="opacity:0.008" fill="#434343" d="M 526.5,653.5 C 527.525,653.897 527.692,654.563 527,655.5C 526.536,654.906 526.369,654.239 526.5,653.5 Z"/></g>
<g><path style="opacity:0.004" fill="#454242" d="M 543.5,653.5 C 544.525,653.897 544.692,654.563 544,655.5C 543.536,654.906 543.369,654.239 543.5,653.5 Z"/></g>
<g><path style="opacity:0.012" fill="#474645" d="M 383.5,655.5 C 384.613,656.946 384.78,658.613 384,660.5C 383.506,658.866 383.34,657.199 383.5,655.5 Z"/></g>
<g><path style="opacity:0.004" fill="#464744" d="M 496.5,655.5 C 497.833,656.167 497.833,656.167 496.5,655.5 Z"/></g>
<g><path style="opacity:0.004" fill="#565757" d="M 272.5,657.5 C 271.833,656.167 271.833,656.167 272.5,657.5 Z"/></g>
<g><path style="opacity:0.004" fill="#414040" d="M 467.5,656.5 C 468.573,657.251 468.74,658.251 468,659.5C 467.517,658.552 467.351,657.552 467.5,656.5 Z"/></g>
<g><path style="opacity:0.004" fill="#444443" d="M 526.5,656.5 C 527.833,657.167 527.833,657.167 526.5,656.5 Z"/></g>
<g><path style="opacity:0.004" fill="#484946" d="M 496.5,659.5 C 496.369,658.761 496.536,658.094 497,657.5C 497.692,658.437 497.525,659.103 496.5,659.5 Z"/></g>
<g><path style="opacity:0.012" fill="#585857" d="M 272.5,657.5 C 273.773,658.077 273.773,658.743 272.5,659.5C 271.537,659.03 271.537,658.363 272.5,657.5 Z"/></g>
<g><path style="opacity:0.004" fill="#454444" d="M 496.5,659.5 C 495.833,660.167 495.833,660.167 496.5,659.5 Z"/></g>
<g><path style="opacity:0.004" fill="#4b4a48" d="M 543.5,659.5 C 544.833,660.167 544.833,660.167 543.5,659.5 Z"/></g>
<g><path style="opacity:0.004" fill="#43403f" d="M 467.5,661.5 C 468.833,662.167 468.833,662.167 467.5,661.5 Z"/></g>
<g><path style="opacity:0.298" fill="#60605f" d="M 678.5,661.5 C 680.027,661.427 681.027,662.094 681.5,663.5C 679.973,663.573 678.973,662.906 678.5,661.5 Z"/></g>
<g><path style="opacity:0.004" fill="#575755" d="M 272.5,664.5 C 272.369,663.761 272.536,663.094 273,662.5C 273.692,663.437 273.525,664.103 272.5,664.5 Z"/></g>
<g><path style="opacity:0.286" fill="#646361" d="M 386.5,494.5 C 386.5,575.167 386.5,655.833 386.5,736.5C 386.5,737.167 386.5,737.833 386.5,738.5C 386.167,738.5 385.833,738.5 385.5,738.5C 385.5,720.5 385.5,702.5 385.5,684.5C 385.5,684.167 385.5,683.833 385.5,683.5C 385.667,651.498 385.5,619.498 385,587.5C 384.667,587.833 384.333,588.167 384,588.5C 383.333,586.833 383.333,585.167 384,583.5C 384.333,584.5 384.667,585.5 385,586.5C 385.667,568.167 385.667,549.833 385,531.5C 384.028,535.232 383.528,534.899 383.5,530.5C 383.687,525.226 384.187,525.226 385,530.5C 385.169,518.326 385.669,506.326 386.5,494.5 Z"/></g>
<g><path style="opacity:0.008" fill="#474945" d="M 496.5,663.5 C 497.833,664.167 497.833,664.167 496.5,663.5 Z"/></g>
<g><path style="opacity:0.008" fill="#605e5c" d="M 499.5,656.5 C 499.5,661.5 499.5,666.5 499.5,671.5C 498.751,670.469 498.085,669.302 497.5,668C 498.138,664.065 498.804,660.231 499.5,656.5 Z"/></g>
<g><path style="opacity:0.008" fill="#474344" d="M 545.5,663.5 C 545.103,664.525 544.437,664.692 543.5,664C 544.094,663.536 544.761,663.369 545.5,663.5 Z"/></g>
<g><path style="opacity:0.09" fill="#767573" d="M 709.5,662.5 C 711.745,663.292 712.078,664.625 710.5,666.5C 709.566,665.432 709.232,664.099 709.5,662.5 Z"/></g>
<g><path style="opacity:0.005" fill="#41403f" d="M 467.5,664.5 C 468.573,665.251 468.74,666.251 468,667.5C 467.517,666.552 467.351,665.552 467.5,664.5 Z"/></g>
<g><path style="opacity:0.047" fill="#6e6d6d" d="M 572.5,663.5 C 573.239,663.369 573.906,663.536 574.5,664C 573.62,665.356 573.286,666.856 573.5,668.5C 572.549,667.081 572.216,665.415 572.5,663.5 Z"/></g>
<g><path style="opacity:0.004" fill="#464544" d="M 495.5,665.5 C 496.833,666.167 496.833,666.167 495.5,665.5 Z"/></g>
<g><path style="opacity:0.007" fill="#595958" d="M 272.5,664.5 C 273.473,666.068 273.64,667.735 273,669.5C 272.598,668.128 272.098,666.795 271.5,665.5C 271.624,664.893 271.957,664.56 272.5,664.5 Z"/></g>
<g><path style="opacity:0.008" fill="#484746" d="M 383.5,663.5 C 384.613,664.946 384.78,666.613 384,668.5C 383.506,666.866 383.34,665.199 383.5,663.5 Z"/></g>
<g><path style="opacity:0.004" fill="#474847" d="M 545.5,668.5 C 544.475,668.103 544.308,667.437 545,666.5C 545.464,667.094 545.631,667.761 545.5,668.5 Z"/></g>
<g><path style="opacity:0.008" fill="#40403f" d="M 467.5,668.5 C 468.833,669.167 468.833,669.167 467.5,668.5 Z"/></g>
<g><path style="opacity:0.004" fill="#494847" d="M 545.5,668.5 C 545.833,668.5 546.167,668.5 546.5,668.5C 546.167,671.167 545.833,671.167 545.5,668.5 Z"/></g>
<g><path style="opacity:0.004" fill="#474946" d="M 383.5,669.5 C 384.833,670.167 384.833,670.167 383.5,669.5 Z"/></g>
<g><path style="opacity:0.598" fill="#525151" d="M 649.5,671.5 C 642.745,671.207 636.078,671.54 629.5,672.5C 632.428,671.18 635.761,670.514 639.5,670.5C 643.018,670.502 646.351,670.835 649.5,671.5 Z"/></g>
<g><path style="opacity:0.004" fill="#565856" d="M 272.5,671.5 C 273.833,672.167 273.833,672.167 272.5,671.5 Z"/></g>
<g><path style="opacity:0.004" fill="#585959" d="M 272.5,672.5 C 271.833,673.167 271.833,673.167 272.5,672.5 Z"/></g>
<g><path style="opacity:0.005" fill="#424140" d="M 467.5,672.5 C 468.573,673.251 468.74,674.251 468,675.5C 467.517,674.552 467.351,673.552 467.5,672.5 Z"/></g>
<g><path style="opacity:0.004" fill="#575a56" d="M 272.5,675.5 C 273.833,676.167 273.833,676.167 272.5,675.5 Z"/></g>
<g><path style="opacity:0.005" fill="#434140" d="M 467.5,676.5 C 468.573,677.251 468.74,678.251 468,679.5C 467.517,678.552 467.351,677.552 467.5,676.5 Z"/></g>
<g><path style="opacity:0.012" fill="#484846" d="M 547.5,676.5 C 546.833,677.167 546.833,677.167 547.5,676.5 Z"/></g>
<g><path style="opacity:0.094" fill="#666463" d="M 548.5,674.5 C 549.434,675.568 549.768,676.901 549.5,678.5C 548.833,677.833 548.167,677.167 547.5,676.5C 547.833,675.833 548.167,675.167 548.5,674.5 Z"/></g>
<g><path style="opacity:0.008" fill="#5c5c5b" d="M 272.5,678.5 C 273.48,686.168 273.647,693.834 273,701.5C 272.5,701 272,700.5 271.5,700C 271.176,692.986 271.509,685.82 272.5,678.5 Z"/></g>
<g><path style="opacity:0.004" fill="#444441" d="M 530.5,679.5 C 531.525,679.897 531.692,680.563 531,681.5C 530.536,680.906 530.369,680.239 530.5,679.5 Z"/></g>
<g><path style="opacity:0.004" fill="#434141" d="M 532.5,680.5 C 533.833,681.167 533.833,681.167 532.5,680.5 Z"/></g>
<g><path style="opacity:0.004" fill="#727270" d="M 790.5,680.5 C 791.833,681.167 791.833,681.167 790.5,680.5 Z"/></g>
<g><path style="opacity:0.004" fill="#424041" d="M 467.5,681.5 C 468.833,682.167 468.833,682.167 467.5,681.5 Z"/></g>
<g><path style="opacity:0.98" fill="#4b4b4b" d="M 653.5,680.5 C 655.5,681.833 657.167,683.5 658.5,685.5C 655.833,684.833 654.167,683.167 653.5,680.5 Z"/></g>
<g><path style="opacity:0.004" fill="#494845" d="M 496.5,684.5 C 497.833,685.167 497.833,685.167 496.5,684.5 Z"/></g>
<g><path style="opacity:0.008" fill="#484746" d="M 385.5,683.5 C 385.5,683.833 385.5,684.167 385.5,684.5C 384.671,692.323 384.171,700.323 384,708.5C 383.333,698.5 383.333,688.5 384,678.5C 384.198,680.382 384.698,682.048 385.5,683.5 Z"/></g>
<g><path style="opacity:0.004" fill="#464646" d="M 495.5,689.5 C 496.833,690.167 496.833,690.167 495.5,689.5 Z"/></g>
<g><path style="opacity:0.82" fill="#474746" d="M 663.5,688.5 C 666.518,688.704 669.518,689.037 672.5,689.5C 669.373,690.815 666.373,690.482 663.5,688.5 Z"/></g>
<g><path style="opacity:0.004" fill="#757774" d="M 787.5,689.5 C 788.833,690.167 788.833,690.167 787.5,689.5 Z"/></g>
<g><path style="opacity:0.005" fill="#434141" d="M 467.5,690.5 C 468.613,691.946 468.78,693.613 468,695.5C 467.506,693.866 467.34,692.199 467.5,690.5 Z"/></g>
<g><path style="opacity:0.424" fill="#5f605e" d="M 580.5,689.5 C 581.167,689.833 581.833,690.167 582.5,690.5C 582.5,691.167 582.5,691.833 582.5,692.5C 581.094,692.027 580.427,691.027 580.5,689.5 Z"/></g>
<g><path style="opacity:0.008" fill="#4a4948" d="M 553.5,696.5 C 552.833,695.167 552.833,695.167 553.5,696.5 Z"/></g>
<g><path style="opacity:0.004" fill="#424240" d="M 467.5,696.5 C 468.833,697.167 468.833,697.167 467.5,696.5 Z"/></g>
<g><path style="opacity:0.004" fill="#4a4a48" d="M 553.5,696.5 C 554.833,697.167 554.833,697.167 553.5,696.5 Z"/></g>
<g><path style="opacity:0.004" fill="#464545" d="M 495.5,697.5 C 496.833,698.167 496.833,698.167 495.5,697.5 Z"/></g>
<g><path style="opacity:0.004" fill="#4a4847" d="M 555.5,700.5 C 554.475,700.103 554.308,699.437 555,698.5C 555.464,699.094 555.631,699.761 555.5,700.5 Z"/></g>
<g><path style="opacity:0.004" fill="#494848" d="M 555.5,700.5 C 556.338,700.842 556.672,701.508 556.5,702.5C 555.662,702.158 555.328,701.492 555.5,700.5 Z"/></g>
<g><path style="opacity:0.808" fill="#545555" d="M 753.5,699.5 C 753.573,701.027 752.906,702.027 751.5,702.5C 751.427,700.973 752.094,699.973 753.5,699.5 Z"/></g>
<g><path style="opacity:0.008" fill="#474947" d="M 556.5,702.5 C 557.833,703.167 557.833,703.167 556.5,702.5 Z"/></g>
<g><path style="opacity:0.729" fill="#545453" d="M 641.5,701.5 C 643.027,701.427 644.027,702.094 644.5,703.5C 642.973,703.573 641.973,702.906 641.5,701.5 Z"/></g>
<g><path style="opacity:0.004" fill="#60605e" d="M 272.5,703.5 C 273.833,704.167 273.833,704.167 272.5,703.5 Z"/></g>
<g><path style="opacity:0.004" fill="#424442" d="M 538.5,703.5 C 539.833,704.167 539.833,704.167 538.5,703.5 Z"/></g>
<g><path style="opacity:0.008" fill="#626262" d="M 272.5,704.5 C 273.765,708.454 273.765,712.454 272.5,716.5C 272.417,712.374 272.417,708.374 272.5,704.5 Z"/></g>
<g><path style="opacity:0.004" fill="#434442" d="M 467.5,706.5 C 468.833,707.167 468.833,707.167 467.5,706.5 Z"/></g>
<g><path style="opacity:0.004" fill="#484745" d="M 496.5,706.5 C 497.525,706.897 497.692,707.563 497,708.5C 496.536,707.906 496.369,707.239 496.5,706.5 Z"/></g>
<g><path style="opacity:0.004" fill="#454243" d="M 542.5,707.5 C 541.833,706.167 541.833,706.167 542.5,707.5 Z"/></g>
<g><path style="opacity:0.008" fill="#737573" d="M 779.5,706.5 C 780.833,707.167 780.833,707.167 779.5,706.5 Z"/></g>
<g><path style="opacity:0.008" fill="#454444" d="M 541.5,707.5 C 540.833,708.167 540.833,708.167 541.5,707.5 Z"/></g>
<g><path style="opacity:0.008" fill="#444542" d="M 542.5,707.5 C 543.833,708.167 543.833,708.167 542.5,707.5 Z"/></g>
<g><path style="opacity:0.008" fill="#454443" d="M 467.5,708.5 C 468.525,708.897 468.692,709.563 468,710.5C 467.536,709.906 467.369,709.239 467.5,708.5 Z"/></g>
<g><path style="opacity:0.008" fill="#484848" d="M 383.5,710.5 C 384.525,710.897 384.692,711.563 384,712.5C 383.536,711.906 383.369,711.239 383.5,710.5 Z"/></g>
<g><path style="opacity:0.004" fill="#444341" d="M 541.5,710.5 C 542.833,711.167 542.833,711.167 541.5,710.5 Z"/></g>
<g><path style="opacity:0.008" fill="#757674" d="M 780.5,710.5 C 781.833,711.167 781.833,711.167 780.5,710.5 Z"/></g>
<g><path style="opacity:0.004" fill="#474946" d="M 496.5,711.5 C 497.833,712.167 497.833,712.167 496.5,711.5 Z"/></g>
<g><path style="opacity:0.005" fill="#4b4948" d="M 383.5,713.5 C 384.598,714.601 384.765,715.934 384,717.5C 383.51,716.207 383.343,714.873 383.5,713.5 Z"/></g>
<g><path style="opacity:0.004" fill="#4c4a49" d="M 559.5,714.5 C 560.833,715.167 560.833,715.167 559.5,714.5 Z"/></g>
<g><path style="opacity:0.004" fill="#464544" d="M 467.5,715.5 C 468.833,716.167 468.833,716.167 467.5,715.5 Z"/></g>
<g><path style="opacity:0.004" fill="#474746" d="M 544.5,716.5 C 545.833,717.167 545.833,717.167 544.5,716.5 Z"/></g>
<g><path style="opacity:0.008" fill="#444443" d="M 467.5,718.5 C 468.833,719.167 468.833,719.167 467.5,718.5 Z"/></g>
<g><path style="opacity:0.008" fill="#656566" d="M 272.5,720.5 C 272.369,719.761 272.536,719.094 273,718.5C 273.692,719.437 273.525,720.103 272.5,720.5 Z"/></g>
<g><path style="opacity:0.004" fill="#646767" d="M 272.5,720.5 C 272.5,720.833 272.5,721.167 272.5,721.5C 271.83,721.019 271.83,720.685 272.5,720.5 Z"/></g>
<g><path style="opacity:0.007" fill="#676767" d="M 272.5,721.5 C 273.613,722.946 273.78,724.613 273,726.5C 271.964,724.701 271.797,723.034 272.5,721.5 Z"/></g>
<g><path style="opacity:0.004" fill="#4a4a47" d="M 570.5,722.5 C 569.833,723.167 569.833,723.167 570.5,722.5 Z"/></g>
<g><path style="opacity:0.008" fill="#4b4a4a" d="M 383.5,720.5 C 384.598,721.601 384.765,722.934 384,724.5C 383.51,723.207 383.343,721.873 383.5,720.5 Z"/></g>
<g><path style="opacity:0.004" fill="#494845" d="M 549.5,723.5 C 550.833,724.167 550.833,724.167 549.5,723.5 Z"/></g>
<g><path style="opacity:0.008" fill="#474545" d="M 467.5,724.5 C 468.833,725.167 468.833,725.167 467.5,724.5 Z"/></g>
<g><path style="opacity:0.008" fill="#4d4d4c" d="M 571.5,725.5 C 570.833,724.167 570.833,724.167 571.5,725.5 Z"/></g>
<g><path style="opacity:0.004" fill="#4a4a48" d="M 496.5,725.5 C 497.833,726.167 497.833,726.167 496.5,725.5 Z"/></g>
<g><path style="opacity:0.012" fill="#4e504d" d="M 571.5,725.5 C 571.833,725.5 572.167,725.5 572.5,725.5C 572.315,726.17 571.981,726.17 571.5,725.5 Z"/></g>
<g><path style="opacity:0.008" fill="#4a4b49" d="M 496.5,727.5 C 497.833,728.167 497.833,728.167 496.5,727.5 Z"/></g>
<g><path style="opacity:0.005" fill="#6b6c6c" d="M 272.5,727.5 C 273.613,728.946 273.78,730.613 273,732.5C 272.5,732 272,731.5 271.5,731C 271.619,729.855 271.952,728.688 272.5,727.5 Z"/></g>
<g><path style="opacity:0.006" fill="#4f4e4e" d="M 383.5,729.5 C 384.525,729.897 384.692,730.563 384,731.5C 383.536,730.906 383.369,730.239 383.5,729.5 Z"/></g>
<g><path style="opacity:0.004" fill="#525050" d="M 577.5,730.5 C 577.103,731.525 576.437,731.692 575.5,731C 576.094,730.536 576.761,730.369 577.5,730.5 Z"/></g>
<g><path style="opacity:0.004" fill="#4f524e" d="M 576.5,732.5 C 577.833,733.167 577.833,733.167 576.5,732.5 Z"/></g>
<g><path style="opacity:0.004" fill="#494b4a" d="M 467.5,733.5 C 468.833,734.167 468.833,734.167 467.5,733.5 Z"/></g>
<g><path style="opacity:0.016" fill="#514f4e" d="M 578.5,733.5 C 579.833,734.167 579.833,734.167 578.5,733.5 Z"/></g>
<g><path style="opacity:0.004" fill="#787975" d="M 759.5,734.5 C 760.833,735.167 760.833,735.167 759.5,734.5 Z"/></g>
<g><path style="opacity:0.012" fill="#515350" d="M 383.5,735.5 C 384.833,736.167 384.833,736.167 383.5,735.5 Z"/></g>
<g><path style="opacity:0.008" fill="#6f7171" d="M 272.5,735.5 C 273.573,736.251 273.74,737.251 273,738.5C 272.517,737.552 272.351,736.552 272.5,735.5 Z"/></g>
<g><path style="opacity:0.009" fill="#545354" d="M 385.5,738.5 C 384.923,739.773 384.257,739.773 383.5,738.5C 383.97,737.537 384.637,737.537 385.5,738.5 Z"/></g>
<g><path style="opacity:0.004" fill="#504e4c" d="M 497.5,738.5 C 498.833,739.167 498.833,739.167 497.5,738.5 Z"/></g>
<g><path style="opacity:0.01" fill="#565454" d="M 585.5,738.5 C 585.489,741.001 584.822,741.168 583.5,739C 584.094,738.536 584.761,738.369 585.5,738.5 Z"/></g>
<g><path style="opacity:0.995" fill="#000000" d="M 559.5,741.5 C 540.196,742.822 520.863,742.822 501.5,741.5C 501.696,739.354 502.696,739.188 504.5,741C 513.333,741.167 522.167,741.333 531,741.5C 540.328,741.473 549.495,740.806 558.5,739.5C 559.298,739.957 559.631,740.624 559.5,741.5 Z"/></g>
<g><path style="opacity:0.004" fill="#aeaead" d="M 892.5,739.5 C 893.833,740.167 893.833,740.167 892.5,739.5 Z"/></g>
<g><path style="opacity:0.004" fill="#777976" d="M 271.5,741.5 C 272.833,742.167 272.833,742.167 271.5,741.5 Z"/></g>
<g><path style="opacity:0.004" fill="#757475" d="M 274.5,741.5 C 275.833,742.167 275.833,742.167 274.5,741.5 Z"/></g>
<g><path style="opacity:0.004" fill="#50514f" d="M 500.5,741.5 C 499.833,742.167 499.833,742.167 500.5,741.5 Z"/></g>
<g><path style="opacity:0.004" fill="#727371" d="M 277.5,742.5 C 276.833,743.167 276.833,743.167 277.5,742.5 Z"/></g>
<g><path style="opacity:0.004" fill="#555755" d="M 388.5,742.5 C 387.833,743.167 387.833,743.167 388.5,742.5 Z"/></g>
<g><path style="opacity:0.908" fill="#202121" d="M 501.5,741.5 C 520.863,742.822 540.196,742.822 559.5,741.5C 550.358,742.832 540.858,743.498 531,743.5C 521.5,743.333 512,743.167 502.5,743C 501.944,742.617 501.611,742.117 501.5,741.5 Z"/></g>
<g><path style="opacity:0.012" fill="#565655" d="M 589.5,742.5 C 588.833,743.167 588.833,743.167 589.5,742.5 Z"/></g>
<g><path style="opacity:0.004" fill="#4f5050" d="M 516.5,744.5 C 517.833,745.167 517.833,745.167 516.5,744.5 Z"/></g>
<g><path style="opacity:0.22" fill="#696867" d="M 680.5,744.5 C 672.833,745.833 665.167,745.833 657.5,744.5C 665.017,744.125 672.684,744.125 680.5,744.5 Z"/></g>
<g><path style="opacity:0.008" fill="#575655" d="M 594.5,746.5 C 593.833,747.167 593.833,747.167 594.5,746.5 Z"/></g>
<g><path style="opacity:0.008" fill="#585857" d="M 595.5,749.5 C 596.833,750.167 596.833,750.167 595.5,749.5 Z"/></g>
<g><path style="opacity:0.004" fill="#5e5a5b" d="M 607.5,757.5 C 607.897,756.475 608.563,756.308 609.5,757C 608.906,757.464 608.239,757.631 607.5,757.5 Z"/></g>
<g><path style="opacity:0.996" fill="#4f4e4d" d="M 637.5,766.5 C 640.228,766.171 642.562,766.837 644.5,768.5C 641.933,768.279 639.599,767.612 637.5,766.5 Z"/></g>
<g><path style="opacity:0.004" fill="#626261" d="M 643.5,769.5 C 644.833,770.167 644.833,770.167 643.5,769.5 Z"/></g>
<g><path style="opacity:0.006" fill="#636261" d="M 647.5,771.5 C 648.251,770.427 649.251,770.26 650.5,771C 649.552,771.483 648.552,771.649 647.5,771.5 Z"/></g>
<g><path style="opacity:0.004" fill="#5f605e" d="M 663.5,771.5 C 662.833,772.167 662.833,772.167 663.5,771.5 Z"/></g>
<g><path style="opacity:0.004" fill="#686865" d="M 682.5,771.5 C 683.833,772.167 683.833,772.167 682.5,771.5 Z"/></g>
<g><path style="opacity:0.008" fill="#696868" d="M 684.5,771.5 C 685.833,772.167 685.833,772.167 684.5,771.5 Z"/></g>
<g><path style="opacity:0.004" fill="#bcbcbb" d="M 880.5,788.5 C 881.833,789.167 881.833,789.167 880.5,788.5 Z"/></g>
<g><path style="opacity:0.004" fill="#bcbebb" d="M 876.5,792.5 C 877.833,793.167 877.833,793.167 876.5,792.5 Z"/></g>
<g><path style="opacity:0.004" fill="#bebfbd" d="M 860.5,816.5 C 861.833,817.167 861.833,817.167 860.5,816.5 Z"/></g>
<g><path style="opacity:0.004" fill="#6b6c6b" d="M 307.5,933.5 C 308.833,934.167 308.833,934.167 307.5,933.5 Z"/></g>
</svg>
